<?xml version="1.0" encoding="UTF-8"?>
<svg version="1.1" viewBox="0 0 2048 2048" width="150" height="150" xmlns="http://www.w3.org/2000/svg">
<path transform="translate(0)" d="m0 0h2048v2048h-2048z" fill="#FDFDFD"/>
<path transform="translate(720,732)" d="m0 0h32l23 2 25 5 18 6 16 7 16 10 13 11 9 9 11 15 10 18 7 19 3 17v34l-5 82v34l2 21 4 19 5 12 6 8 8 4h7l2-1 1-3v-232l-1-39-2-18-2-6-14-4-20-3-11-5v-2l4-1 25-1h118l6 12 10 25 18 42 19 41 13 29 18 41 9 21 6 10 3-4 11-28 14-32 13-29 15-35 13-30 15-36 10-25 1-1 75-1h67l-1 6-3 3-23 4-13 5-4 5-2 5-1 18-1 130v56l1 68 1 11 3 5 8 6 14 3 18 1 3 4-1 4-7 2h-78l-69-1h-25l-2-1 1-4 13-4 16-4 11-4 6-4 1-2v-289l-4 13-12 28-10 24-13 31-17 39-13 30-12 27-16 37-11 26-13 30-7 15-4 9-2 3-5-1-6-7-8-16-14-32-13-30-13-29-18-39-16-36-9-19-13-29-12-27-11-23-6-11-2-1 2 18v193l1 46 2 14 4 8 5 5 6 3 26 5 7 3 3 12 4 2 209 2h319l27-1h125l1 1-1 41-1 9-9 1h-687l-89-1-36-1h-140l-28 1-140 1h-287l-47-1-15-1-3-1v-24l1-24 1-1h50l59 1h232l-9-12-10-18-7-14v-2l-7 3-13 8-16 8-18 7-13 4-26 5-22 2h-40l-27-3-25-5-20-7-20-9-16-11-13-10-12-12-10-11-10-15-8-14-9-21-4-16-2-13v-30l5-25 8-21 12-23 10-14 12-13 11-11 11-9 17-12 14-8 21-10 22-7 20-4 18-2 15-1h29l26 3 28 7 38 14h9l7-3 4-2 2-5 3-5 3-9 5-3 5 1 1 6-1 69 1 4v10l9-17 6-11 7-11 8-10 9-10 10-9 15-10 16-9 21-8 14-4 26-4z" fill="#5D4736"/>
<path transform="translate(711,740)" d="m0 0h52l23 3 17 4 16 6 17 9 13 10 12 12 13 17 10 18 5 11 3 11 2 21v35l-3 56v66l3 18 5 15 8 15 4 5 13 9 8 4 11 3 14 2 23 2 9 3-1 12-5 12-4 4-15 4-13 1h-41l-20-2-16-4-16-10-12-11-12-12-9-13-6 1-11 8-16 9-18 10-23 11-27 10-17 5-20 3h-27l-27-4-17-4-15-5-23-11-11-9-10-9-13-24-8-16-2-7v-20l5-17 8-16 9-13 14-14 16-11 25-11 22-7 37-9 36-7 53-8 44-6 17-4 5-2v-24l-2-24-3-13-8-16-7-10-8-9-14-10-16-8-12-4-14-2h-34l-16 3-16 7-11 8-5 4-1 2h-2l-2 4-8 11-7 11-11 25-7 16-8 11-10 9-7 3-6-1-10-6-8-8-10-14-4-11 1-8 11-24 8-13 10-13 12-13 12-10 15-10 16-8 16-6 23-5z" fill="#FDFEFE"/>
<path transform="translate(408,770)" d="m0 0h26l21 3 21 7 16 9 14 11 13 13 11 15 13 26 11 13 10 13 4 5 11 8 10 4h9l9-3 11-7 7-8 7-14 10-26 7-13 11-14 9-9 10-7 15-6 17-4 10-1h12l21 3 13 5 11 6 10 8 8 8 10 14 5 11 4 17 1 15v20l-5 3-17 4-52 8-46 7-35 7-30 8-33 11-16 8-13 9-8 7h-2l-2 4-8 9-9 15-5 10-5 14-8 16-13 9-18 10-19 8-16 5-17 3h-40l-14-3-21-7-14-8-10-8-13-13-12-18-7-16-5-15-6-27-2-16v-39l4-26 6-19 7-17 7-12 11-14 12-11 14-10 17-9 18-6z" fill="#FDFEFE"/>
<path transform="translate(709,734)" d="m0 0h18l9 1 25 1v2h12l4 3h-66l-29 3-23 5-21 8-16 9-16 12-12 11-10 12-9 13-9 17-7 17 1 9 6 12 11 13 6 5 9 5 6-1 6-3 10-9 7-11 8-18 10-23 10-15 7-9h2l2-4 12-9 16-8 12-3 7-1h34l18 3 15 6 14 8 13 11 9 11 8 14 5 14 2 15 1 15v24l-6 3-17 4-78 11-41 7-44 10-26 8-26 11-11 7-10 8-11 11-9 14-7 14-5 17v20l5 14 16 30 7 8 14 11 19 10 17 6 15 4 23 4 12 2v2h12l6 1 15 1 4 2 3-1 17-1h26l16-1 10-4h4l3 2v2l12 2 2 2-12 2-30 1-1 1-48 2-140 1h-287l-47-1-15-1-3-1v-24l1-24 1-1h50l59 1h232l-9-12-10-18-7-14v-2l-7 3-13 8-16 8-18 7-13 4-26 5-22 2h-40l-27-3-25-5-20-7-20-9-16-11-13-10-12-12-10-11-10-15-8-14-9-21-4-16-2-13v-30l5-25 8-21 12-23 10-14 12-13 11-11 11-9 17-12 14-8 21-10 22-7 20-4 18-2 15-1h29l26 3 28 7 38 14h9l7-3 4-2 2-5 3-5 3-9 5-3 5 1 1 6-1 69 1 4v10l9-17 6-11 7-11 8-10 9-10 10-9 15-10 16-9 21-8 14-4 17-3h12zm-301 36-17 3-18 6-19 10-14 11-12 11-11 15-8 16-6 15-4 14-4 26v39l3 21 6 26 8 21 6 11 10 14 15 15 15 10 14 6 20 6 7 1h40l21-4 20-7 16-8 18-10 9-7 7-15 5-14 7-14 10-15 7-7v-2l4-2 11-9 15-9 17-7 39-12 30-7 33-6 74-11 25-5 8-3 1-1v-20l-2-21-4-13-7-14-11-13-7-7-14-9-11-5-11-3-16-2h-12l-15 2-15 4-12 5-11 8-10 10-11 15-8 17-10 26-7 11-8 7-11 6-5 1h-9l-12-5-9-7-11-14-14-17-13-26-9-12-9-10-8-8-15-11-16-8-18-6-21-3z" fill="#5D4636"/>
<path transform="translate(1104,1177)" d="m0 0h6l4 5 2 5 2 7 5 6 11 4 7 8 6 11v2h2l1 3 3-1 6-9 12-10 8-4 4-1h18l12 4 5 3 7-1 6-5 30 1 7-1 8 2 1 1v7l-3 10v28l3 12 5 8 6 3h10l10-4 10-5 3-12v-38l-1-9 8-4 8 2 2 4 1 52 1 13v15l-3 2h-15l-1-1v-8l-5 3-8 5-11 3h-11l-14-3-1 5 2 10-2 4-3 2-12 2-11 4h-9l-9-1-5-1-4-2-1 9h2v3l-5-2-4-1-18-2-3 1 1 6h2v2l5 2 9 11 8 16 11 24 6 15 6 13 10 25 6 14 2 6v4l-14 1-6-3-5-8-8-14-3-2h-10l-12 1-31-1-8-1-7 10-4 12-3 3-3 1h-15l-12 1-8-2-3-2-7 1-11 4-4 1h-24v-2l-9-1-11-4-11-8-8-9-6-10-5-12-2-7-1-8v-19l4-15 8-14 7-8 13-9 13-6 15-2h10l17 4 10 5 5 5v2l4 1v2l3 1v2l2-2-1-6-4-6-10-7-12-6-9-3-16-2-24 4-6 2h-4l1-4 6-5h2l2-7 6-3 11-3 6-4 3-6v-2l-14 4-8 1h-15l-18-3-8-5-2-5 1-8 2-3 7 1 14 5 6 1h13l10-3 3-2v-7l-2-4-26-8-11-3-8-6-6-7-2-4 1-8 5-10 3-4h2l1-3 10-5 4-1h22l8 2 5 4 2 3 5-1h8l2 2 5-5 4-6 4-2 4-16 3-5z" fill="#F2FEFE"/>
<path transform="translate(1392,750)" d="m0 0h166l37 3 25 5 15 5 13 7 9 7 7 6 8 10 8 14 7 19 2 15-1 14-3 12-7 16-6 8-9 10-8 7-15 10-20 8-20 4-24 3-47 3-6 1-1 12v40l1 60 3 15 6 8 10 2 21 2 6 3v5l-7 2h-90l-78-1-1-3 3-4 12-2 11-2 12-5 6-4 2-16v-198l-1-64-1-13-3-5-11-5-32-6-1-7z" fill="#5D4737"/>
<path transform="translate(1965,815)" d="m0 0h6l-2 25-5 25-5 17-8 19-8 16-7 11-10 14-14 15-3 3h-2l-1 3-22 18-13 9-16 10-16 8-23 10-41 13-25 4-31 3-38 1-11 2-12 6-13 12-12 13-9 11-9 4-3 1 1-4 7-12 10-17 7-13 6-9 2-8 1-25 5-24 7-21 12-24 7-11 10-14 16-16 11-9 10-7 19-10 16-5 27-6 18-3 34-3 45-2 30-3 16-5 12-5 9-6 11-9z" fill="#037449"/>
<path transform="translate(709,734)" d="m0 0h18l9 1 25 1v2h12l4 3h-66l-29 3-23 5-21 8-16 9-16 12-12 11-10 12-9 13-9 17-7 17 1 9 6 12 11 13 6 5 9 5 6-1 6-3 10-9 7-11 8-18 10-23 10-15 7-9h2l2-4 12-9 16-8 12-3 7-1h34l18 3 15 6 14 8 13 11 9 11 8 14 5 14 2 15 1 15v24l-6 3-17 4-78 11-41 7-44 10-26 8-26 11-11 7-10 8-11 11-9 14-7 14-5 17v20l5 14 16 30 7 8 14 11 19 10 17 6 15 4 23 4 12 2v2h12l6 1 15 1 4 2 3-1 17-1h26l16-1 10-4h4l3 2v2l12 2 2 2-12 2-30 1-1 1-48 2-140 1h-287l-47-1-15-1-3-1v-24l1-24 1-1h50l59 1h232l-9-12-10-18-7-14v-2l-7 3-13 8-16 8-18 7-13 4-30 4-14 1h-17l2-2h3v-2l18-4h2v-3l4-3h2v-2l22-4h4v-2l16-5 21-9 21-12 8-6 7-15 5-14 7-14 10-15 12-12 11-9 15-9 17-7 39-12 30-7 33-6 74-11 25-5 8-3v-20l-2-21-4-13-7-14-11-13-10-9-14-8-13-5-21-3h-12l-15 2-15 4-12 5-11 8-9 9-11 15-8 17-10 26-7 11-9 8-11 6-5 1h-9l-12-5-10-8-11-14-14-17-13-26-9-12-9-10-7-7-4-3v-2l4 2 8 7 9 10 6 7h2l-1-7 2-2v2l4 2 4 4 4 1 4-2 4 9 1 1 1 9 9-17 6-11 7-11 8-10 9-10 10-9 15-10 16-9 21-8 14-4 17-3h12z" fill="#5D4737"/>
<path transform="translate(1299,750)" d="m0 0h67l-1 6-3 3-23 4-13 5-4 5-2 5-1 18-1 130v56l1 68 1 11 3 5 8 6 14 3 18 1 3 4-1 4-7 2h-78l-69-1h-25l-2-1 1-4 13-4 16-4 11-4 6-4 1-2v-289l-4 13-12 28-9 22h-2v-2l-3 1-2-5-7 12-3 5h-2v2h-3l-2 6h-1l1-7 20-47 16-39 4-10 1-1z" fill="#5D4737"/>
<path transform="translate(810,946)" d="m0 0h7l2 2v50l-1 23-3 7-11 7-18 10-30 14-23 9-24 7-22 3-22-1-17-3-15-5-9-7-8-9-6-9-4-15 1-10 4-9 8-11 8-8 13-9 19-8 30-8 53-10 45-7z" fill="#FDFEFE"/>
<path transform="translate(931,1329)" d="m0 0h9l6 4 6 8 13 24 13 32 10 24 12 26 4 12-1 1-19-1-4-4-10-19-3-2-31-1-15-1h-11l-7 6-7 10-7 7-10 4h-24l-9-3-12-13-7-9-8-11-5-4-12-5-11-1-3 3-2 4v12l-1 21-3 6-1 1h-10l-3-1-3-10 1-8-1-51-1-15v-37l1-4 6-2 16-1h43l12 3 10 6 7 8 8 15 2 7-1 10-4 11-6 9-8 7-8 6-1 7 8 11 11 14 4 5 5-1 4-4 5-8 14-32 10-24 10-23 8-17 7-9z" fill="#04633E"/>
<path transform="translate(523,1328)" d="m0 0h8l5 3 4 6 2 35 3 6 1 5 8-9 15-20 18-18 12-6 5-1h8l1 1-1 7-6 9-37 37-7 8v4l8 8 8 7 11 13 11 11 7 8 9 9 6 1 3-3 10-25 15-37 6-12 11-23 7-13 8-9 3-2h6l11 11 15 29 6 14 8 19 12 27 6 15 4 16-1 1h-16l-5-5-9-17-4-4-3-1h-32l-10-1h-16l-5 5-10 19-9 3h-12l-6 1-12-2-10-5-12-11-7-7-9-11-16-16-4-2-2 4-2 5v33l-3 9-3 3-14-1-2-1v-127z" fill="#037348"/>
<path transform="translate(1308,1329)" d="m0 0h26l15 5 11 7 9 10 7 12 5 16 1 5v19l-4 14-6 14 1 9 6 7 2 9-3 4h-9l-8-4-2-5-11 1-17 6-16 1-16-2-14-7-10-9-7-9-6-12-5-17-1-8v-12l2-12 8-16 9-12 5-4 14-6z" fill="#085131"/>
<path transform="translate(709,734)" d="m0 0h18l9 1 25 1v2h12l4 3h-66l-29 3-23 5-21 8-16 9-16 12-12 11-10 12-9 13-9 17-7 17 1 9 6 12 11 13 6 5 9 5 6-1 6-3 10-9 7-11 8-18 10-23 10-15 7-9h2l2-4 12-9 16-8 12-3 7-1h34l18 3 15 6 14 8 13 11 9 11 8 14 5 14 2 15 1 15v24l-6 3-17 4-78 11-41 7-44 10-26 8-26 11-11 7-10 8-11 11-9 14-7 14-5 17v20l1 8-2 2-5-3-4-2h-2l-1 3-15 9-16 8-18 7-13 4-30 4-14 1h-17l2-2h3v-2l18-4h2v-3l4-3h2v-2l22-4h4v-2l16-5 21-9 21-12 8-6 7-15 5-14 7-14 10-15 12-12 11-9 15-9 17-7 39-12 30-7 33-6 74-11 25-5 8-3v-20l-2-21-4-13-7-14-11-13-10-9-14-8-13-5-21-3h-12l-15 2-15 4-12 5-11 8-9 9-11 15-8 17-10 26-7 11-9 8-11 6-5 1h-9l-12-5-10-8-11-14-14-17-13-26-9-12-9-10-7-7-4-3v-2l4 2 8 7 9 10 6 7h2l-1-7 2-2v2l4 2 4 4 4 1 4-2 4 9 1 1 1 9 9-17 6-11 7-11 8-10 9-10 10-9 15-10 16-9 21-8 14-4 17-3h12z" fill="#5D4736"/>
<path transform="translate(1524,769)" d="m0 0h12l17 2 13 4 10 6 10 9 9 13 5 15 1 5v32l-3 16-5 13-6 9-11 11-14 8-14 3-9 1h-15l-2-1-1-8 1-133z" fill="#FEFEFE"/>
<path transform="translate(814,1166)" d="m0 0h16l20 1 16 3 8 4 7 6 5 10 2 7v24l-6 11-13 11-7 6 1 6 11 13 6 7 8 7 3 7-1 3-4 2-12-1-8-7-7-7-9-11-10-11-7-4-10-3-16-4v10l3 21 1 4v10l-2 2h-14l-5-2-2-5-2-41v-70l3-5 5-2z" fill="#037449"/>
<path transform="translate(931,1329)" d="m0 0h9l6 4 6 8 13 24 13 32 10 24 12 26 4 12-1 1-19-1-4-4-10-19-3-2-31-1-15-1h-11l-7 6-7 10-7 7-10 4h-16l-3-10-3-4 1-2 6 7 5-1 4-4 5-8 14-32 10-24 10-23 8-17 7-9z" fill="#037349"/>
<path transform="translate(1187,1328)" d="m0 0 7 1 5 5 7 8 8 16 11 24 6 15 6 13 10 25 6 14 2 6v4l-14 1-6-3-5-8-8-14-3-2h-10l-12 1-31-1-8-1-7 10-4 12-3 3-3 1h-10l-5-3v-9l3-7 8-14 12-31 7-16 4-10 14-28 11-11z" fill="#03633E"/>
<path transform="translate(1466,1203)" d="m0 0h10l15 4 10 1 3-2h8l3 2 3 40v22l-2 19-4 2h-23l-8 2-6 1h-10l-13-2-11-7-6-7-4-8-4-15-2-14 1-7 6-12 10-10 14-7z" fill="#037349"/>
<path transform="translate(1183,1203)" d="m0 0h18l12 4 5 3 7-1 6-5 7 1 2 2 1 45 1 17v21l-1 1h-9l-3-3v-2l-12 2-22 6-16-1-8-4-11-10-6-9-3-10-2-18-1-5 2-6 8-12 10-9 8-5z" fill="#085131"/>
<path transform="translate(214,1166)" d="m0 0h8l15 6 1 5-1 2-1 12v13l1 13 1 1h59l1-2 1-12v-35l1-2 6-1h10l5 2 2 3-1 40-1 11v62l-1 8-2 2-17 1-2-1-1-38-1-13-2-1h-51l-5 2-3 4v45l-18-1-6-1v-48l1-71z" fill="#037449"/>
<path transform="translate(1064,1327)" d="m0 0h10l17 4 10 5 7 8 3 6-1 5-3 6-5-2-12-7-8-3-11-1-12 1-12 5-9 7-7 8-6 11-2 13 1 12 4 11 10 16 8 6 16 4h7l16-5 9-6 4-8 1-11-3-6-3-1h-24l-4-5v-7l5-5 3-1 27-2 12-2 4 9 1 18v9l-2 12-4 9-6 8-8 6-9 4-14 2h-17l-16-4-14-9-9-10-6-10-5-12-2-7-1-8v-19l4-15 8-14 7-8 13-9 13-6z" fill="#085231"/>
<path transform="translate(1312,1348)" d="m0 0h17l11 4 6 4 8 9 5 10 1 3v27l-2 8-5 10-8 8-16 8-7 2h-9l-11-2-8-4-5-4-7-10-5-12-3-14 1-12 8-16 9-9 10-7 4-2z" fill="#FCFDFD"/>
<path transform="translate(370,1203)" d="m0 0h21l12 3 7 7 7 10 5 12 1 6v17l-3 12-9 13-9 7-9 3-14 1-12-2-9-4-8-6-9-14-4-15v-14l3-11 5-10 7-7 14-7z" fill="#095232"/>
<path transform="translate(1071,1347)" d="m0 0 11 1 12 5 10 6v3h2l3 10v9l-3 3-13 2-2 1-18 1-6 3-1 2v7l3 4h24l5 3 2 5-1 11-4 8-8 6-10 4-8 2h-7l-16-4-8-6-10-15-4-9-2-11 1-14 4-10 7-10 7-7 10-6 8-3z" fill="#FBFDFD"/>
<path transform="translate(540,1202)" d="m0 0h16l9 2 8 6 6 7 4 8 4 16v11l-4 3-25 1h-17l-12-3-2-2h-5l-3 1 2 9 6 10 6 4 7 2h11l18-4 9-3h5l-2 10-3 5-5 4-12 4-9 1h-14l-12-3-11-7-6-8-7-14-2-7v-15l3-10 6-11 7-7 10-6 8-3z" fill="#085333"/>
<path transform="translate(936,1202)" d="m0 0h22l8 3 10 9 8 16 3 11-1 6-3 5-10 3-13 1h-21l-12-3-5-4-2 3v8l3 7 7 6 7 3h16l18-3 9-1 1 5-4 8-7 6-8 2-18 1h-11l-8-3-9-7-8-10-6-13-2-15 1-13 5-12 10-10 11-7z" fill="#085232"/>
<path transform="translate(824,937)" d="m0 0 3 1v62l-1 27-3 7-21 12-27 13-19 8-36 12-17 4-15 2h-23l-14-2-15-5-15-9-13-13-8-13-3-9v-13l5-12 6-10 10-10 13-9 18-10 19-7 23-6 32-6 44-7 38-5zm-14 9-50 7-61 11-30 7-18 6-16 8-11 9-7 7-7 10-4 13 1 10 3 10 8 11 9 10 9 5 16 5 13 2 22 1 22-3 26-8 28-11 31-15 17-10 5-4 2-6 1-23v-50l-2-2z" fill="#5D4636"/>
<path transform="translate(816,879)" d="m0 0h1l1 9h1l1 7 3 2v-11h1l1-6h1v19l-6 3-17 4-78 11-41 7-44 10-26 8-26 11-11 7-10 8-11 11-9 14-7 14-5 17v20l1 8-2 2-5-3-4-2h-2l-1 3-15 9-16 8-18 7-13 4-30 4-14 1h-17l2-2h3v-2l18-4h2v-3l4-3h2v-2l22-4h4v-2l16-5 21-9 21-12 8-6 7-15 5-14 7-14 10-15 12-12 11-9 15-9 17-7 39-12 30-7 33-6 74-11 25-5 8-3z" fill="#524B38"/>
<path transform="translate(700,1180)" d="m0 0h7l9 6 5 6 3 7v9l-6-1-7-6-3-6-6-2-9 2 1 9 9 3 9 7 5 8 11 7 3-5 3-9 3-2 7 1 8 7 9 11 1 4-6 7-3 6-5 4-11 5-3-1-5-5-8-6-1-2-4 1-5 6-1 9 6 2 7 9 2 5-4 5-8 6-6 3-8 1-6-3-4-4-6-4-2-3v-9l10-7 4-5v-8l1-1 1-7 4 2 8 2 2 1 2-5 1-3-4-10-6-3h-2l-2 5-5 10-9 5-2 4-5 2-8 7-6-1-7-4-7-10-4-4-1-3 5-8 10-10 4-5 5-1 3 3 5 2 1 7-5 5-8 5-3 4 2 10 4-1 8-7 4-9 8-6 5-3 1-4-3-8-4-4-3-5-4-1 1-4 5-5 8-7z" fill="#423025"/>
<path transform="translate(685,1351)" d="m0 0h6l4 3 2 13 10 23 5 13 4-2 3-6 4 1 8 20 3 4 6 11 2 1 1-4 6 15 4 16-1 1h-16l-5-5-9-17-4-4-3-1h-32l-10-1h-16l-4 2 1-12 6-11h2l1-6 15-35 6-18z" fill="#037449"/>
<path transform="translate(931,1329)" d="m0 0h9l6 4 6 8 13 24 13 32 10 24 12 26 4 12-1 1-19-1-2-1-1-8 1-5-4-15-2-4v-3l-4-1v-2h-3v-2l-4-2-7-20v-2h-2l-8-18-6-11-4-5-3-5-5 9-6 18-8 19h-2l-2 9-4 7-4 3h-2l-1 3h-2l-2 5-5 2-5-1-2-1 2-8 4-7 5-14 8-17 4-8 3-9 6-14 4-9 3-7z" fill="#085232"/>
<path transform="translate(814,1166)" d="m0 0h16l20 1 16 3 8 4 7 6 5 10 2 7v24l-6 11-13 11-7 6 1 6 11 13 6 7 8 7 3 7-1 3-4 2-12-1-8-7-7-7-9-11-10-11-4-3v-2l-10-3-13-3 1-7 3-1 2-6 15 1h12l8-1 2 1 9-2 3-1 3-9v-14l-4-12-5-5-11-4-4-1-19-1h-10v-7l2-3h-3v-3l-2-1z" fill="#095232"/>
<path transform="translate(1585,1203)" d="m0 0 10 1 9 3 8 10 6 13 2 7 2 21 1 24-1 7-6 4-5 1-9-4v-17l1-14v-14l-3-11-6-9-6-3-5-1h-8l-9 4-6 4-5 10-2 17v13l2 13v10l-3 2-9-1-4-4-1-6-1-38-1-22-2-8v-7l5-2h12l5 4 5-1 10-4z" fill="#047449"/>
<path transform="translate(992,1225)" d="m0 0h7l-1 4 5-3v7l6 9 7 6 8 3 19 5 12 4 3 5v7l-4 3-10 3h-13l-12-3-10-4h-5l-3 10-5 2-5 5-3-1-2-7-5-1v2l-2-1 1-7-9 1-18 3h-16l-10-5-7-8-1-4v-8l4-4 4 4 12 3h21l18-2 5-1 2-5 1-6-3-11v-3z" fill="#E1FEFE"/>
<path transform="translate(685,1328)" d="m0 0h6l11 11 15 29 6 14 8 19 11 25v6l-3-1-6-11-5-8-5-15-4-2-2 6-3 3-3-1-13-32-3-7v-10l-4-2h-6l-7 21-7 15-8 19-1 4h-2l-1 4-4 7-2 14-4 7-5 10-3-1-2-4-5 2-3 3-2-2v-7l4-11 3-12 15-36 7-15 15-30 9-10z" fill="#085232"/>
<path transform="translate(1328,1203)" d="m0 0 8 2 2 4 1 52 1 13v15l-3 2h-15l-1-1v-8l-5 3-8 5-11 3h-11l-10-3-8-6-6-10-4-14-1-9-1-44 9-3 9 1 3 2v7l-3 10v28l3 12 5 8 6 3h10l10-4 10-5 3-12v-38l-1-9z" fill="#085232"/>
<path transform="translate(1028,1202)" d="m0 0h22l8 2 5 4 5 10 1 5-1 1-9-1-13-4h-15l-7 3-5 5-1 7 9 3 20 3 11 3 11 6 6 8v12l-2 9-7 8-5 4-9 3-8 1h-15l-18-3-8-5-2-5 1-8 2-3 7 1 14 5 6 1h13l10-3 3-2v-7l-2-4-26-8-11-3-8-6-6-7-2-4 1-8 5-10 3-4h2l1-3 10-5z" fill="#085433"/>
<path transform="translate(1905,875)" d="m0 0h5l-1 4-16 10-20 9-36 12-37 10-38 13-22 11-21 14-28 20-13 12-7 6h-1l1-7 7-11 8-10 22-22 12-9 14-9 17-9 18-7 37-10 59-14 19-5 13-5z" fill="#EDFEFD"/>
<path transform="translate(1104,1177)" d="m0 0h6l4 5 2 5 2 7 5 6 11 4 7 8 4 8-1 4-8-5-7-1-5 5-4 5-3 12-1 7v18l4 7 6 3 18 2-2 5-5 10-2 1h-15l-9-2-8-6-3-3-3-9-3-28-4-18-6-12v-7l6-8 3-1 4-16 3-5z" fill="#037449"/>
<path transform="translate(452,1174)" d="m0 0 7 1 4 7 1 10-1 7 3 1 1 3 5-1 8-1 7 3 3 5-1 5-6 5-4 3-8 2-3 5-3 13-1 8v10l2 8 3 4 20 4 2 4-2 11-4 2h-22l-7-3-5-6-4-13-2-18-2-20-4-6-4-10-3-4v-7l5-5 5-6 5-13 3-6z" fill="#037449"/>
<path transform="translate(1653,1175)" d="m0 0 5 2 3 4 1 3v18l3 2h19l4 4 1 6-5 5-7 3-9 2-4 6-2 13v10l3 12 3 5 10 5 10 3 3 4 1 6-3 2-6 1h-25l-8-7-4-9-3-14-2-16-4-15-8-13v-9l3-6 5-3 5-2 2-9 5-10z" fill="#037449"/>
<path transform="translate(523,1328)" d="m0 0h8l5 3 4 6 2 35 3 6 1 5 5-4-2 4-6 10 1 6 5 8-4-1-2 4-2 5v33l-3 9-3 3-14-1-2-1v-127z" fill="#04623D"/>
<path transform="translate(1083,1209)" d="m0 0h1l2 7 6 14 4 22 2 21 2 7-4 1h-2l-2 4-5 5-8-2-3-5-5 1-7 6-3-1 8-7 3-4 2-9v-12l-5-7-13-7-20-4-13-2-6-3 1-7 5-5 5-3 3-1h15l17 5h5l-3-11 5-2h8l2 2z" fill="#E0FEFD"/>
<path transform="translate(1186,1330)" d="m0 0h7l4 4 5 3 6 9 8 16 9 20 6 15 6 13 10 25 6 14 2 6v4l-14 1-6-3-5-8-4-8-3-10 2-5 1-4-2-4-4-1-3 1-3-9v-3h-2l-6-16-4-9-2-8v-9l1-7-1-5h-5l-9 4-4 2-1 2-9 1 1-7 2-3 2-6 2-1 3-7z" fill="#04633E"/>
<path transform="translate(1463,1221)" d="m0 0h15l11 4 8 7 4 7 1 5v12l-2 10-5 4-16 6h-18l-8-5-6-7-3-12v-8l3-11 5-6 8-5z" fill="#F9FDFD"/>
<path transform="translate(1189,1220)" d="m0 0h10l10 3 6 4 7 8 2 6v16l-3 9-14 9-11 4-9-1-8-4-7-8-3-9-1-14 3-10 7-8 8-4z" fill="#F9FDFD"/>
<path transform="translate(813,1350)" d="m0 0 14 1 9 3 7 6 4 8v12l-5 8-5 4-9 4-6 1h-24l-7-2-4-5-1-3-1-15 1-12 3-5 8-4z" fill="#F7FDFD"/>
<path transform="translate(824,1185)" d="m0 0h13l16 2 9 4 4 4 4 9v11l-3 6-8 7-13 4h-11l-17-2-6-3-3-3v-31l3-5 4-2z" fill="#F2FEFE"/>
<path transform="translate(610,1168)" d="m0 0 11 1 4 3-1 90-1 22-1 8-4 3h-9l-4-1-1-5v-67l-1-52z" fill="#085332"/>
<path transform="translate(376,1220)" d="m0 0h9l9 3 6 5 5 9 1 4v14l-4 11-8 7-11 4-11-1-10-6-6-8-3-7-1-10 2-9 4-6 8-6z" fill="#FAFDFD"/>
<path transform="translate(1406,1203)" d="m0 0h8l5 3 1 2-1 16-1 1-12-1-4-1h-10l-5 2h-5l-3 4-3 13v21l3 20 1 7-4 2h-10l-5-2-2-33v-49l5-2h11l3 2h6l5-2z" fill="#037349"/>
<path transform="translate(603,1181)" d="m0 0h1l1 41v71l-1-3h-2v-19l-5 1-1 2h-4l-4-5-4-1v6l-2-1 1-3-21 6-11 2h-11l-9-3-6-5-6-12v-6l3-2h5l2 2 12 3h17l25-1 3-2v-11l-3-13 1-3 2 4 7-1 3-3 4 2 3 2-1-28z" fill="#E2FEFE"/>
<path transform="translate(1466,1203)" d="m0 0h10l15 4 10 1 3-2h8l3 2 3 40v22l-1 12-2 3-6-1-4 1-4-5 1-17v-21l-5-13-4-5-5-3-10-2h-14l-15 4-3-1v3l-4 2-2 6h-4v-3h-4l1-7 4-6 8-7 11-5z" fill="#085231"/>
<path transform="translate(1183,1203)" d="m0 0h18l12 4 5 3 7-1 5-4-2 17-1 4-2 1 1 15v13l-2 7h-1v-21l-4-9-8-7-7-3-5-1h-10l-9 4-7 6-3 7-1 11 2 12 2 7-3-3v-3l-2 1-3 8-4 2-3-2-1 4-5-10-3-23-1-5 2-6 8-12 10-9 8-5z" fill="#03643F"/>
<path transform="translate(1129,1217)" d="m0 0 7 1 8 5 2-2 1 4h2l1 3 2 2-2 2-1 7 2 10 2 16 5 10 8 9-4 1-5 5-2 3h-6l-3-7-5-3 3-6h-12l-9-2-5-5-3-5v-18l3-16 3-6 6-7z" fill="#F8FDFD"/>
<path transform="translate(1336,1206)" d="m0 0 4 2 7 2 9-2 4-2 4 1-5 1 1 49 2 33 4 1h10l4-1v2l-4 2h-21l-68 1v-2l15-2 12-5 6-5 2 1v8h15l2-1v-15l-1-13-1-52z" fill="#B5F8EF"/>
<path transform="translate(542,1216)" d="m0 0h12l8 5 5 5v2l3 1 3 7 1 6-15 2 4 5 8 2v2h14l-2 2-25 1h-17l-12-3-2-2h-5l-3 1 2 9 6 10 4 4-4-1-5-6-7-12h-5l1 1-3 3-2-1 1-5h2l-1-5v-3-1l2-9 3-7 4-6 3-2h3v2h2v3l4-4 7-3z" fill="#03633E"/>
<path transform="translate(528,1028)" d="m0 0 6 1 1 15 1 8-2 2-5-3-4-2h-2l-1 3-15 9-16 8-18 7-13 4-30 4-14 1h-17l2-2h3v-2l18-4h2v-3l4-3h2v-2l22-4h4v-2l16-5 21-9 21-12 8-6z" fill="#423025"/>
<path transform="translate(888,1200)" d="m0 0h1l3 21 5 4 2 10 2 1v10l2 15 8 16 8 9-2 1-3-1-8 7-8 1-11 1-1-2 4-2-2-8-14-13-11-14-2-3 1-5 9-8 11-9 5-10z" fill="#E0FEFE"/>
<path transform="translate(1238,1205)" d="m0 0h14l6 1-2 1 1 8 1 36 2 14 4 11 6 10-4 2-3 6-4 2h-30l-6-1h-28v-2l26-7h8l1 4h11v-21l-1-17-1-45z" fill="#E1FEFE"/>
<path transform="translate(1575,1220)" d="m0 0h8l10 3 1 2h-9l1 7 4 6 2 9 1 12-2 10-3 11-4 3-3 1h-10l-6-5-6-11 1-7v-17l2-7-5 1-2 7-1 32h-1l-1-8v-13l2-17 5-10 5-4 8-4z" fill="#F1FEFE"/>
<path transform="translate(787,1331)" d="m0 0h43l6 1v1l-17 2 4 3v2h-2v2h-3l-1 4-3 1-2-1v2h13l12 3 7 1 1 2-2 6-11-7-12-2-23 1-8 4-2 4-1 14 1 16h-2l-1 7-3 2-6-1-2-6-2-7v-17l-1-1v-20l3-13-2-2z" fill="#03754A"/>
<path transform="translate(935,1354)" d="m0 0 3 3 4 7 5 8 8 17 6 16 2 9-10 1h-39v-10l6-16 6-15 4-12z" fill="#E0FEFE"/>
<path transform="translate(686,1354)" d="m0 0 5 5 8 15 9 23 3 9v8l-7 1-41 1 1-9 7-17 8-18 6-17z" fill="#E1FEFE"/>
<path transform="translate(819,1232)" d="m0 0 15 1h16l2 5 3 1v2l10 1 6-2-9 9 1 6 11 13 6 7 8 7 3 7-1 3-4 2-12-1-8-7-7-7-9-11-10-11-4-3v-2l-10-3-13-3 1-7 3-1z" fill="#04633E"/>
<path transform="translate(1512,1206)" d="m0 0h18l5 1v8l2 8 1 22 1 38 1 8-5-4-16 2-2 2h-5l3-2 2-19v-22l-3-40z" fill="#B5F8EF"/>
<path transform="translate(481,1233)" d="m0 0h8l7 5h5v17l4 12 7 12 3 5-5 4-2 3-3 1h-16v2l-4-2 3-1 2-11-1-4-17-2-5-3-3-5-1-6v-10l2-1 1 10 4-6 6-15z" fill="#F0FEFE"/>
<path transform="translate(1886,885)" d="m0 0h6l-4 4-16 7-27 10-10 3-1 2-34 9-38 13-22 11-12 8h-7l-1-5 3-3 7-2 2-4 5-6 13-6 25-7 11-4 19-8 13-4 2-3 32-7 19-5 4-1z" fill="#F9FDFD"/>
<path transform="translate(1188,1356)" d="m0 0 3 1 13 26 8 20 2 11-6-1-12 2-25 1-3-2v-8l6-18 5-10 6-17z" fill="#FAFDFD"/>
<path transform="translate(463,1221)" d="m0 0h6l1 4-3 7-3 18v10l2 8 3 4 20 4 2 4-2 11-4 2h-22l-7-3-5-6-4-13-1-6-1-33 12-5 5-5z" fill="#03633E"/>
<path transform="translate(1598,1208)" d="m0 0 5 1 5 3 6 9 5 12 2 15 2 28-1 13-6 4-5 1-9-4v-17l1-14v-14l-3-11-2-9v-3h-2l-1-5h-2l1-4 3-2z" fill="#085332"/>
<path transform="translate(553,1378)" d="m0 0 2 1-1 12-2 6 6 1 3-1 2 1v2l4 2v2l4 1v2l4 2 9 12 4 6 5 4v2l4 2 3 3v2l4 2 9 8 2 3v4l-2 1h-10l-10-5-12-11-7-7-9-11-12-12-6-7-5-8 1-6 6-9z" fill="#0B5031"/>
<path transform="translate(713,1231)" d="m0 0 3 4 5 5 4 5 9 7 7 1 10-3-3 3-11 5-3-1-5-5-8-6-1-2-4 1-5 6-1 9 6 2 7 9 2 5-4 5-8 6-6 3-8 1-6-3-4-4-6-4-2-3v-9l10-7 4-5v-8l1-1 1-7 4 2 8 2 2 1 2-5 1-3z" fill="#5C4737"/>
<path transform="translate(1064,1327)" d="m0 0h10l17 4 10 5 7 8 3 6-1 5-3 6-5-2-12-7-8-3-11-1-12 1-12 5-9 7-4 3-1-5v-8l7-6 8 1 3 2 9-1-3-6v-3h-3v-2l-3-1-1-2-11 3-6 2 3-3 13-6z" fill="#037449"/>
<path transform="translate(431,1207)" d="m0 0h1l2 7 8 16 2 3 3 32 3 16-3-3-11-1-6-4-4-12-2-1-2 3v-22l-3-12-6-12 10-4h8z" fill="#DFFEFD"/>
<path transform="translate(802,1167)" d="m0 0h12l3 4v3h3l-1 9-5 3-5 5-2 11-1 9-2 4-1 8-3 1-1 4-3 3-4 1-3-3-1-4-1-53 4-3z" fill="#04623D"/>
<path transform="translate(700,1180)" d="m0 0h7l9 6 5 6 3 7v9l-6-1-7-6-3-6-6-2-9 2 1 9 9 3 9 7 5 8 11 7 3-5 3-9 3-2 7 1 2 2-10 2-2 6 3-6 3-1 3 5v2l4 1 5 6v7l-6 7-5 2h-7l-6-5-1-5 1-4-4-1-2-4-4-2-6-7-7-8-6-3h-3l1 7 1 4-3 6-8 4-4 1 4-5 7-4 1-4-3-8-4-4-3-5-4-1 1-4 5-5 8-7z" fill="#564A38"/>
<path transform="translate(1220,759)" d="m0 0h2v4h2l-1 12 3-2h3l1-3 1 2-4 16-20 48h-2v-2l-3 1-2-5-7 12-3 5h-2v2h-3l-2 6h-1l1-7 20-47 16-39z" fill="#443025"/>
<path transform="translate(1129,1395)" d="m0 0 5 1 2 10v2l5-2 3-4h2l-3 10-6 15-8 14-2 5v9l1 2-2 1-12 1-8-2-3-2-7 1-11 4-4 1h-24v-1l27-2 11-4 9-6 7-9 4-12 1-8 5-3 6-19z" fill="#DEFEFD"/>
<path transform="translate(1328,1203)" d="m0 0 8 2 2 4 1 52 1 13v15l-5 1-9-1-1-4v-11l-2-19v-44l2-5z" fill="#085433"/>
<path transform="translate(1023,1384)" d="m0 0h1l1 20 3 9 4 2 6 4-1-9 2-2 9 2 14 7 9 3 11 1-2 5-6 7v4l16-3-3 3-10 4-8 2h-7l-16-4-8-6-10-15-4-9-2-11z" fill="#F2FFFF"/>
<path transform="translate(1365,1211)" d="m0 0h9l8 2-1 7-5 14-1 6v24l1 14-3 6h-2v2l-6-2-3-6-1-11-1-23v-16l1-16z" fill="#095131"/>
<path transform="translate(1110,1383)" d="m0 0 3 1 3 8 1 18v9l-2-4-1-20-3-8-8 1-1 6 1 4h2l3 9 1 7-2 7-5 1-1 5-7 9-4 4-5 2-2 1-7 1-5 1h-14l-12-5-4-4 5 2 16 4h7l16-5 9-6 4-8 1-11-3-6-3-1h-24l-4-5v-7l5-5 3-1 27-2z" fill="#037248"/>
<path transform="translate(1115,1247)" d="m0 0h1v17l6-2 3-5 3-6 2-2h8l11 5 1-5h1l2 16 5 10 8 9-4 1-5 5-2 3h-6l-3-7-5-3 3-6h-12l-9-2-5-5-3-5z" fill="#E1FEFE"/>
<path transform="translate(1222,1238)" d="m0 0 2 3v16l-3 9-14 9-11 4-9-1-8-4-7-8-2-5 1-4h8l4-2h16l10-6h10l3-4z" fill="#F1FEFE"/>
<path transform="translate(1e3 1385)" d="m0 0h1l2 23 5 15 6 11 1 3v13l-1 1h-6l-6-5-4-1 2 10-2-2-7-17-8-17v-2h5l-2-8v-14l1-2 5 1 3 4 3 1 1-13z" fill="#DFFEFD"/>
<path transform="translate(638,926)" d="m0 0m-3 1h3l-1 3-10 2-3 2-8 1v2l4 1 1-2 2 1v2l-19 7-20 9-16 12-12 12-9 14-7 14-5 17v11h-1l-1-5-5-1-5 2 2-6 4-9 5-14 7-14 10-15 12-12 11-9 15-9 17-7z" fill="#5B4636"/>
<path transform="translate(539,1337)" d="m0 0h1l2 35 3 6 1 5 5-4-2 4-6 10 1 6 5 8-4-1-2 4-2 5v33l-2 7h-2l1-9v-18l-2-7-5 1-1-6 2-20-2-17-2-13-1-13 2-7 1-1h6l2 3z" fill="#037449"/>
<path transform="translate(944,1216)" d="m0 0 8 1 10 4 7 8 3 8v3l-5 2h-18l-8-1h-10l-10 2-3 3-1-3 5-13 9-8z" fill="#B5F8EF"/>
<path transform="translate(542,1216)" d="m0 0h12l8 5 6 7 4 10v2l-4 1-38 1-10 4v-7l4-9 7-8z" fill="#B5F8EF"/>
<path transform="translate(217,1170)" d="m0 0 5 4 1 5-3 6-1 6 1 10-1 14-1 8 2 5v7l-1 5v9l3 16 5 5 3 6v10h3v4l-5 2h-10l-5-2 1-78v-36l2-5z" fill="#04623D"/>
<path transform="translate(1555,1225)" d="m0 0 3 1-1 5-3 13-1 12v13l2 13v10l-3 2-9-1-4-4v-47l2-5 4-3 2-4 5-4z" fill="#085332"/>
<path transform="translate(1440,1236)" d="m0 0 5 1-1 4v14l3 10 3 4v2l4 2 6 4v2l2 1v4h2l2 6-16 1-11-8-7-10-4-13-1-10 1-3 6 1 1-4z" fill="#085131"/>
<path transform="translate(900,1379)" d="m0 0h3l-3 9-10 24-10 22-4 8-5 7-3 2-5-1-13-16-1-3h2v2h5l1-1v-11l2-2 9-2 7 1 3 1 6-5 7-18z" fill="#F3FFFF"/>
<path transform="translate(321,1211)" d="m0 0 2 1v11l7 2 4 6v2h2l2 3v17l1 7-3-1v9l-2 8-4 2-7-3-1 9-2-4v-58z" fill="#DEFEFD"/>
<path transform="translate(814,1204)" d="m0 0 5 1 3 3 10 1 10 8 5 2h13v8l-9 4-5 1h-11l-17-2-6-3-2-4 1-15 1-3z" fill="#FDFEFD"/>
<path transform="translate(773,1131)" d="m0 0 6 3v2l12 2 2 2-12 2-93 3h-14l-8-1-1-3-6-4-3-3 19 1 6 1 15 1 4 2 3-1 17-1h26l16-1 10-4z" fill="#422E24"/>
<path transform="translate(931,1212)" d="m0 0 7 1 1 1 16 2 9 4v2l4 2 6 13-1 5-2 1-13 1-9-1v-1l18-1 5-1-4-11-6-7-10-4-8-1-16 8-6 7-4 12 1 1 2-3 10-1-3 2-5 1-1 2 4 1 2 4 7 2v1l-8-1-5-4-2 3v8l3 7 7 6 7 3h16l18-3 4 1-16 4-9 1h-9l-10-3-6-4-6-7-4-2h-3l-2-3-1-9-3-7 4-14 4-5h2v-2l9-7 3-3z" fill="#037248"/>
<path transform="translate(1184,1203)" d="m0 0h17l12 4 5 3 7-1 5-4-2 17-1 4-2 1 1 15v13l-2 7h-1v-21l-4-9-8-7-7-3-5-1h-10l-8 2 1-2 7-3v-4l-4-2-2-7z" fill="#037449"/>
<path transform="translate(1628,1212)" d="m0 0h1l3 9 6 9 4 15 3 21 1 8-3-3-1-2h-8l-4-5-2-4-1-15-5-8h-3l-4-12-1-4h5l2-4 3-2h3z" fill="#DFFEFD"/>
<path transform="translate(1699,949)" d="m0 0h2l-1 4-15 15-3 6-4 5-5 5-6 10-2 4-10 3-3-3h2v-2l-2-1 2-1 3-9 2-7 1-4 5-2 1-2h2l2-10 1-3h2l1-4 4-2 1 5 5 1 14-7z" fill="#04633E"/>
<path transform="translate(522,1341)" d="m0 0 5 1 1 5-2 7 1 11 1 4-2 4 1 5 1 6 2 7v10l-3 11-1 9 1 14 1 4v16l5-1 3 2-1 4-14-1-2-2 1-18 1-97z" fill="#095131"/>
<path transform="translate(1325,1204)" d="m0 0 2 1-2 2-1 4v48l2 17v13h9l2 2h-15l-1-1v-8l-5 3-8 5-11 3h-11l-8-2v-1h13l7-1-2-5-2-4-5-2-6-3 2-1 3 1h10l10-4 10-5 3-12v-38l-1-9z" fill="#037348"/>
<path transform="translate(500,794)" d="m0 0 4 2 8 7 9 10 6 7h2l-1-7 2-2v2l4 2 4 4 4 1 4-2 4 9 1 1v15l-1 2h2l2 17 1 5-4-2-10-13-12-24-9-12-9-10-7-7-4-3z" fill="#432F25"/>
<path transform="translate(604,1329)" d="m0 0h8l1 1-1 7-6 9-37 37-4 5-5 1 3-7 4-4h2l1-4 3-3h2l1-3h2l2-4 3-3 2-6 4-1v-2h2v-5l-7 2h-6l-4 2 2-4 11-11 12-6z" fill="#085231"/>
<path transform="translate(719,1395)" d="m0 0 4 1 8 20 3 4 6 11 2 1 1-4 6 15 4 16-1 1h-16l-5-5v-6h5v2l5-1-2-9v-4l-3-1-1-3-6-4-3-4v-2l-4-2-4-8v-2l-4-1-2-6 5-4z" fill="#04633E"/>
<path transform="translate(667,1211)" d="m0 0 5 1 1 2 5 2 1 7-5 5-8 5-3 4 2 10 6-1-4 8 8-3 4-4 5-1 1-2-1 4-5 2-8 7-6-1-7-4-7-10-4-4-1-3 5-8 10-10 4-5z" fill="#574736"/>
<path transform="translate(789,1252)" d="m0 0h2l3 7h5l4-6h2l3 20v4h2l1 4v10l-2 2h-14l-5-2-1-4-1-33z" fill="#04633E"/>
<path transform="translate(844,1255)" d="m0 0 5 1 6 4 1 4 4 1v2l7-3 13 13 9 6 2 8-5 3-12-1-8-7-7-7-9-11-9-10v-2z" fill="#095232"/>
<path transform="translate(772,1403)" d="m0 0 6 1-3 8 1 7 8 1v16l-4 18 1 1v5l-10-2-3-5-1-22v-18l2-9z" fill="#04633D"/>
<path transform="translate(955,1416)" d="m0 0 6 2 1 7-2 5-4 2h-35l-9-1 1-10 3-1v-2z" fill="#04633E"/>
<path transform="translate(1186,1330)" d="m0 0h7l4 4 5 3 6 9 7 14-1 7-3 3-4-1-1-2v-12l-3-4v-3l-5-2-5-1-4 8-5 5h-2l-1 2-9 1 1-7 2-3 2-6 2-1 3-7z" fill="#085232"/>
<path transform="translate(1357,1370)" d="m0 0 2 1 3 11v21l-3 13-6 10-3 1-1 3-14 9h-2l-1 4-4 1h-13l-15-3-9-6-9-10-4-8-3-11-1-1-2 7-3 1-2-2-3-5-1-17 1-4 1-5 4-3h2l3 3 2 1-1 14 4 17 6 12 5 7 9 6 6 2 8 1h9l12-4 11-6 7-7 6-12 1-6v-27z" fill="#037248"/>
<path transform="translate(981,1279)" d="m0 0 5 1 3 7 4-2 4-4h5l3 7h-2l-1 4 2 11-5 4-8 2-5 1-3-5-7-3-1-4 2-10-4 3-3-1 6-5 3-4h2z" fill="#F1FEFE"/>
<path transform="translate(1168,1262)" d="m0 0h2l4 8 7 6 10 4 12-1 1 9-1 2-8 2h-18l-7-4-10-9-3-6 1-3 4 2 3-1z" fill="#085131"/>
<path transform="translate(672,1417)" d="m0 0h34l4 5 1 8-4 1-34 1-9-2-1-5v-5z" fill="#04633E"/>
<path transform="translate(1098,1265)" d="m0 0 2 4 5 5h9l5-1 4 3 12 2 2 1v3h4l-2 6-2 4-2 1h-15l-9-2-8-6-3-3-3-9z" fill="#085332"/>
<path transform="translate(921,1340)" d="m0 0 1 2-5 12-7 15-3 9-13 28-3 8-4 8-1 4h-2l-2 12 1 8h2 3v-2l4-2 8-1-2 5-9 9-10 4h-16l-3-10-3-4 1-2 6 7 5-1 4-4 5-8 14-32 10-24 10-23 8-17z" fill="#037449"/>
<path transform="translate(1173,1330)" d="m0 0h3v5l-3 4-2 9-9 19-3 6h-2l-2 6-1 2h-2v2h-2l-2 4-4 1 1-11 2-5 2-9 8-14 10-15z" fill="#F9FDFD"/>
<path transform="translate(1065,1329)" d="m0 0h5l3 3v2l8 1 10-2 8 4v2h2l1 3-4 4-8-1-3 3-6-1h-21l-3-6v-3h-3v-2l-3-1-3-4 3-1z" fill="#03633E"/>
<path transform="translate(1097,1240)" d="m0 0h5l2 2 9 2 1 1v21l1 4 5 2 6 3 18 2-2 5h-5v-3l-14-2-4-3-5 1h-9l-5-5h-3l-1-29z" fill="#03633E"/>
<path transform="translate(1191,1393)" d="m0 0 5 1 5 5-1 5-7 4-1 3 15-1v-2h2v-7l2-1 3 11-1 3-5-1-12 2-25 1-3-2v-8l4-12 1 4-1 2h7l10-5z" fill="#F1FEFE"/>
<path transform="translate(1231,1204)" d="m0 0 7 1 2 2 1 45 1 17v21l-1 1h-9l-3-3v-2l-12 2-22 6-16-1v-2h16l8-1-1-10-11 1-10-4-8-7 1-2 8 7 9 3 9-1 12-6h2l4 7v2h14l7 7 2 1-2-30-1-48-1-3-6-2z" fill="#03633E"/>
<path transform="translate(837,1424)" d="m0 0 5 1 2 3-1 4-2 3 2 4h3l1-3 4 1 9 10 3 7v5h-8l-9-3-12-13-7-9-4-6v-2l4 1 3 3v2h3v2h2l-1-5 1-4z" fill="#0A5131"/>
<path transform="translate(499,1244)" d="m0 0h1l1 11 4 12 7 12 3 5-5 4-2 3-3 1h-16v2l-4-2 3-1 2-11-1-4-17-2-4-2 2-1 11 2 9-1 5-3 5-7-1-6z" fill="#E1FEFE"/>
<path transform="translate(1308,1340)" d="m0 0 12 4 10 2 9 3 8 5 5 6-1 2-7-7-11-5-4-1h-17l-8 2-9 6-10 9-4 6h-3l1-7v-6l-1-3 2-3h2l2-4 3-1 1-3 9-2 4 1v-2l5-1 2 1z" fill="#04633E"/>
<path transform="translate(584,1268)" d="m0 0 5 1 3 3v2h4l1-3h5l1 8-1 11h2l1 3 4 2-10 2-4 2-7-1-4-5-2-7h-3-3l3-3 3-9h2z" fill="#F1FEFE"/>
<path transform="translate(807,1246)" d="m0 0 11 2 13 3 6 3 5 5-5-2-3 10-1 1-11 1-12-4v12h-1l-3-21z" fill="#E2FEFE"/>
<path transform="translate(700,1180)" d="m0 0h7l9 6 5 6 3 7v9l-6-1-7-6-3-8-4-5-5 3-7 3v12h-2l-3-6-6-1 1-4 5-5 8-7z" fill="#463126"/>
<path transform="translate(1169,1399)" d="m0 0 1 4-1 3v8l2 1 25-1 16-2 1-1v-5l2 3 2 9h2l1-3v2l5 1 2 6v2l-2 1-1 5 2 4-1 4-4-6-2-1h-10l-12 1h-11v-1l22-2 4-1-1-6 1-4-6-3-11 1-5 5-8-2-1-3h-11l-5-2v-2l-2-1 3-5z" fill="#03754A"/>
<path transform="translate(523,1328)" d="m0 0h8l5 3 3 4v16l-3-4v-2l-6 1-2 10 1 13-3-4-1-11 2-8-1-4h-4l-1 97-1 18h-1v-126z" fill="#04623D"/>
<path transform="translate(603,1181)" d="m0 0h1l1 41v59h-1l-1-34-2 1h-12l-2 4-2-16-2-11 3 4 7-1 3-3 4 2 3 2-1-28z" fill="#B5F8EF"/>
<path transform="translate(847,1368)" d="m0 0 2 2v3l7 1h6l1 4-1 7-4 2-4-1-4 2v7l-7 6-9-1-1-3-10 2h-24l-9-3-3-3 1-3 5 5 5 1h24l8-2 10-5 4-5 2-4z" fill="#03754A"/>
<path transform="translate(590,1346)" d="m0 0 2 2-1 4h-2l-1 4-4 2-1 4-5 6-3 3h-2l-1 3-2 1-1 3-4 1-2 4-2-1 1-6-1-4-3-1 2-5 10-13 4-3h2l2-2h6z" fill="#04633E"/>
<path transform="translate(1100,1284)" d="m0 0 14 7 21 2h4v7l-4 5-5 2-11-1-9-4-9-6-3-6 1-5z" fill="#FBFDFD"/>
<path transform="translate(568,1228)" d="m0 0 3 3 3 7v4l-15 2 4 5 8 2v2l-18 2h-11l-10-3-6-7 1-3 3-1 42-1-4-10z" fill="#04613D"/>
<path transform="translate(1939,918)" d="m0 0 1 4-11 16-12 14-8 8h-2l-1 3-22 18-13 9-6 4h-2v-3h4v-2l3-1 7-9h2l1-3 6-4h3l1-3 8-7 5-5 4-2 1-3 5-5 5-6 1-3 5-3h2v-2l4-4 4-6z" fill="#07613D"/>
<path transform="translate(487,1248)" d="m0 0 11 1h1l2 13-7 9-7 3h-6l2-1-1-5-8-4 1-7 4-6z" fill="#E3FFFF"/>
<path transform="translate(1031,1218)" d="m0 0h15l17 5-1 2-9-2-8-2-4 1-2 10-2 5 19 4v1l-9-1-24-4-6-3 1-7 5-5 5-3z" fill="#B5F8EF"/>
<path transform="translate(561,965)" d="m0 0 2 2-7 9h-2l-1 4h-2l-1 8-7 12-5 13-3 11v11h-1l-1-5-5-1-5 2 2-6 4-9 5-14 7-14 8-12 8-7z" fill="#473227"/>
<path transform="translate(1650,1276)" d="m0 0 10 2 6 2 10 1 5-1v-2l5 1 5 3 1 6-3 2-6 1h-25l-8-7-2-4z" fill="#095131"/>
<path transform="translate(1905,875)" d="m0 0h5l-1 4-16 10-20 9-36 12-3-1 8-3 22-8 20-8 7-4-12 1-6 2-18 4-30 7-26 6-21 6h-5l4-2 25-7 63-15 19-5 13-5z" fill="#B5F8EF"/>
<path transform="translate(1466,1203)" d="m0 0h10l15 4 10 1 3-2h8l3 2 1 24-2-2v-6l-2-2 1-9h-6l-1 4-4 2-13-6-12-3-9-1-4-2-10 1-5 1 4-3z" fill="#037349"/>
<path transform="translate(685,1351)" d="m0 0h6l4 3 2 13 10 23 5 14-3-1-7-19-8-18-6-10-2-1-8 22-11 24-3 9-1 6h8v2l-7 2v9l4 2-11 1-4 2 1-12 6-11h2l1-6 15-35 6-18z" fill="#037349"/>
<path transform="translate(1115,1247)" d="m0 0h1l1 17 4 6 6 3 15 1 9-4 1-2h2l5 8 7 8-4 1-5 5-2 3h-6l-3-7-5-3 3-6h-12l-9-2-5-5-3-5z" fill="#E0FEFE"/>
<path transform="translate(1132,1233)" d="m0 0 4 2 4 6 9 8v5l-5-1-6-3h-8l-3 4-3 7-3 3h-5v-16l7 1 3-10z" fill="#F2FFFF"/>
<path transform="translate(1621,1236)" d="m0 0 5 5 2 4 1 15 5 8h8l5 7-1 2-3-2-7 4-4-1-8-7v12l-2 3-1-28-1-10v-10z" fill="#EDFEFD"/>
<path transform="translate(1231,1397)" d="m0 0h2l4 7 1 7 4 2 4 4h7l5 6 4 6v6l-2 3h-9l1 2v6l-2-2-11-26-8-20z" fill="#E1FEFE"/>
<path transform="translate(1240,1207)" d="m0 0h3l1 13v6l2 2 3 14-1 12-3 3h-2v34l-3 2h-12l-4-3-7-2 4-2h8l1 4h11v-21l-1-17z" fill="#B5F8EF"/>
<path transform="translate(1244,1400)" d="m0 0 4 1 4 6 5 3v-2h2l5 14 1 9-2 10-1 1h-9v7h-1l-1-11 5-1h4l1-2v-6l-7-10-5-1-4-1-7-6-1-6h6z" fill="#F1FEFE"/>
<path transform="translate(837,1257)" d="m0 0 6 2 4 5-5-2 1 10 2 5v3h-9l-13-2-7-7-7-2 1-5 13 4 10-1z" fill="#F2FEFE"/>
<path transform="translate(1170,1257)" d="m0 0 3 3 1 2 15 1 7 3 7 5 7 1v-2l4 1-14 7-9 1-10-4-8-7-3-7z" fill="#E1FEFE"/>
<path transform="translate(1359,1341)" d="m0 0 7 6 9 14 5 14 2 9v19l-4 14-6 14 1 9 4 4v2l-8-1-1-11 4-10 2-9 2-6v-38l-4-10-6-9-8-9z" fill="#037248"/>
<path transform="translate(922,1248)" d="m0 0 5 4 12 3h21l18-1v2l-2 1-12 1h-22l-6-1h-11l-1 1v5l6 7 5 3 6 1h8l18-3 10-2h2l1 3-19 4-8 1h-16l-10-5-7-8-1-4v-8z" fill="#B5F8EF"/>
<path transform="translate(1075,1388)" d="m0 0h21l1 5-5 5-1 3-8 2h-11l-2-2-1-4h-2l1-5 1-2z" fill="#095131"/>
<path transform="translate(1028,1416)" d="m0 0 3 1 6 9 8 5 15-1 7 7h11l10-3 2 1-10 5-11 3h-7l-16-4-8-6-10-15z" fill="#E0FEFE"/>
<path transform="translate(522,1250)" d="m0 0h5l2 2 12 3h41l-1 2h-22l-4 1h-12l-10-2v2h-5v7l2 5 5 2 7 2 9 1 18-2-3 2-15 3h-11l-9-3-6-5-6-12v-6z" fill="#B5F8EF"/>
<path transform="translate(742,1225)" d="m0 0 5 1 5 5v7l-5 5-9 3-8-4-1-7 3-5 5-4z" fill="#FAFEFD"/>
<path transform="translate(1358,1396)" d="m0 0h2v9l-2 8-5 10-8 8-16 8-7 2h-9l-11-2-8-4-5-4-6-8 1-2 5 5v2l4 2 6 2v2l9 1 3 1h11l13-3v-2l11-7 5-4 3-4 1-9 2-3z" fill="#DFFDFC"/>
<path transform="translate(1362,1430)" d="m0 0h3l1 3-4 9-1 10-2 1v-2l-11 1-17 6-16 1-16-2-7-3 3-1 10 2 15 1v-2h2v-3l6 1 1 2 5-1h6l1-4 6-2 4-3h2v-2l5-5 2-5z" fill="#04633E"/>
<path transform="translate(1183,1203)" d="m0 0 2 4 1 5 3 2 1 4-8 4-7-2-4-1-8 4-4-1 1-2-2-1 10-9 8-5z" fill="#0B5132"/>
<path transform="translate(1269,1377)" d="m0 0h2l3 3 2 1-1 14v9l-3 8-3 1-2-2-3-5-1-17 1-4 1-5z" fill="#04623D"/>
<path transform="translate(601,1206)" d="m0 0 2 2v21l-4-2-5-1-1 3-7 1-2-5h-2l-6-12 4 2 5 1 4-3h12z" fill="#E1FEFE"/>
<path transform="translate(1434,1220)" d="m0 0 2 1-3 4-1 5h4v3h4l1-6 2-2h3v-3l11-1-4 4-5 2-3 10h-5l-2 5h-2l-2 6-6-1-1 3-1-1-1-13 7-14z" fill="#04643E"/>
<path transform="translate(889,1200)" d="m0 0h1l1 12 6-4h5l5 5 5-1 3-1-2 4-7 8-5 13-3-1-2-10-5-4-2-11z" fill="#F0FEFE"/>
<path transform="translate(1419,1216)" d="m0 0 2 4 4 12h2l-2 4-7-7-2-1h-17l-16 6-5 1-1 8-1 20h-1v-21l3-13 4-5 7-1 3-1h10l10 2h6z" fill="#F1FFFF"/>
<path transform="translate(709,734)" d="m0 0h18l9 1 25 1v2h12l4 3-44-3-36 3h-12l-3-2 7-1 2-2z" fill="#422E24"/>
<path transform="translate(1708,946)" d="m0 0 2 1-8 8-7 9-3 4h-2l-1 6 10-5 3 1-12 9-12 11-7 6h-1l1-7 7-11 8-10z" fill="#B5F8EF"/>
<path transform="translate(1886,885)" d="m0 0h6l-4 4-16 7-24 9-3-1 5-1v-2l2-2-4-1h-4v-2l-2-1 25-6 7-1 7-2z" fill="#EEFEFE"/>
<path transform="translate(1463,1260)" d="m0 0 6 1 4 2v5l1 3 8 2v2l-3 1h-18l-8-5-6-7 1-3 6 3h6z" fill="#F3FFFF"/>
<path transform="translate(405,1237)" d="m0 0 2 3v28l-2 5-5 9-9 2-5-3-18-5-8-6 1-2 9 6 8 2 9-1 10-5 5-6 3-9z" fill="#03643F"/>
<path transform="translate(534,769)" d="m0 0 3 1 3 4-1 8 1 13-1 9 1 5-2 3h-2l-4-15-3-5-7-5v-3l9-1 2-8z" fill="#422E24"/>
<path transform="translate(1320,1281)" d="m0 0 2 1v8l21 1h33l4-1v2l-4 2h-21l-68 1v-2l15-2 12-5z" fill="#E3FEFE"/>
<path transform="translate(992,1225)" d="m0 0h7l-1 4 5-3v7l6 9 1 2-5-2h-13l-4 1-2 4-1-10-2-10z" fill="#B6F8EF"/>
<path transform="translate(393,751)" d="m0 0h39l20 3v2l-8 2h-6l-5-2-2 1-9-1h-18l-19-1-18-1v-1z" fill="#443025"/>
<path transform="translate(1e3 1385)" d="m0 0h1v13l-1 8-4 2-3-1v7l1 9-1 1-8-1-2-6h5l-2-8v-14l1-2 5 1 3 4 3 1 1-13z" fill="#EEFEFE"/>
<path transform="translate(928,1378)" d="m0 0 4 2-1 11-4 10v8l-1 1h-7l-3-2v-6l2-5 2-8h2l2-6z" fill="#F0FEFE"/>
<path transform="translate(901,1422)" d="m0 0v3l-3 4v5h5v4l-4 4-7 1-4 1v2h-3l-1 2-2-2-1-11 3-9 1 2 8 1 4-2 2-4z" fill="#03633E"/>
<path transform="translate(672,1417)" d="m0 0h8l-1 5 8 3 5 2 1 3-2 1-18 1-9-2-1-5v-5z" fill="#085131"/>
<path transform="translate(1664,1267)" d="m0 0h2l4 4 8 4 10 3 2 3h-3l-6-3v2h-2l-1 2h-7l-10-2-1-2-9-1-3 3-1-5 1-3 8-2 4 1 1-3z" fill="#03643F"/>
<path transform="translate(781,1408)" d="m0 0 23 4 6 3-2 1-6-2-11-1-3 3-2 4v12l-1 21-3 6-2-4-1-3 4-16v-15l-7-1-2-4 3-7z" fill="#03754A"/>
<path transform="translate(1195,1351)" d="m0 0 5 1 2 6-1 10 1 11-2-2-10-20h-2l-5 12-6 16-4 9-2 5-1-4 1-7 2-7 2-4 2-2 2-1 3-11 4-8z" fill="#037449"/>
<path transform="translate(900,1379)" d="m0 0h3l-3 9-10 24-10 22-4 8-5 7-3 2-5-1-7-9 2-1 4 4 4 1 5-3 6-7 8-17v-7l6-15z" fill="#E4FDFC"/>
<path transform="translate(520,1228)" d="m0 0h5l-2 5-2 6v6l6-2 2 5 5 4 8 2h11l7-1h25l-2 2-25 1h-17l-12-3-2-2h-5l-3 1 2 9 6 10 4 4-4-1-5-6-4-7-2-8-1-7h2l1-12 1-5z" fill="#037349"/>
<path transform="translate(1155,1380)" d="m0 0 1 3-5 13-5 12-5 16-5 10v12l-2 11 4 1h-7l-5-3v-9l3-7 8-14 12-31z" fill="#03754A"/>
<path transform="translate(913,1324)" d="m0 0h3l1 3-8 16-10 13-4-2 1-6 3-5-1-6 10-9z" fill="#F3FFFF"/>
<path transform="translate(1231,1204)" d="m0 0 7 1 2 2 1 45 1 17v21l-1 1h-9l-3-3v-2l-12 2-22 6-16-1v-2h16l16-4 13-5 7 1 5 4 5 1-2-30-1-48-1-3-6-2z" fill="#037348"/>
<path transform="translate(976,1214)" d="m0 0 19 1 5 4h5l-1 6-4 4h-2l1 5-2-1 1-7-16 1z" fill="#E0FEFE"/>
<path transform="translate(1498,1235)" d="m0 0 3 4 1 5v12l-2 10-3 3-3-1v-6l-1-2-7-2 2-6 8-8z" fill="#EFFFFF"/>
<path transform="translate(477,1201)" d="m0 0 9 2 4 6-1 5-6 5-7 1-2-1v-2h-2l1-11-1-2 5-1z" fill="#06613C"/>
<path transform="translate(208,979)" d="m0 0 3 4 6 12 8 11 4 7 5 6 1 4h2l4 5v2h2l5 5 6 5v2l4 2 15 11 9 6-3 1-15-10-13-10-12-12-10-11-10-15-8-14-3-6z" fill="#443528"/>
<path transform="translate(448,1250)" d="m0 0h2l2 5v3l-1 6 1 2-1 3 2 6 2 5 4 2 7 4h3l1 6-7 1-7-3-5-6-2-5-2-17v-9z" fill="#085332"/>
<path transform="translate(824,1185)" d="m0 0h13l16 2 9 4 2 1v2l-4-1v-2l-13-2-24 1-9 3-2 9-1 23-2-1v-31l3-5 4-2z" fill="#B5F8EF"/>
<path transform="translate(1547,1216)" d="m0 0h6l3 2 1 6 2 1-1 2-3-1-7 4-2 4-5 4-2 4v-20l4-4z" fill="#04623D"/>
<path transform="translate(1101,1387)" d="m0 0 4 1h-2l-1 6 1 4h2l3 9 1 7-2 7-5 1-1 3v-11l1-10-1-4-4-1-5 3-3-1h2l1-4h2l2-6v-3z" fill="#04633E"/>
<path transform="translate(706,1259)" d="m0 0 2 1 2 12-3 3-7 2-6-1-2-2 1-7 5-5z" fill="#FEFEFE"/>
<path transform="translate(1533,1286)" d="m0 0 5 2 5 5-10 1-8 1-4-1h-32l-8-1v-1l8-2h28l4-2 10-1z" fill="#E3FFFF"/>
<path transform="translate(914,1285)" d="m0 0 4 2-4 5v8l-3 2h-10l-8-3-2-3-3-2 10-1 8-1z" fill="#F2FFFF"/>
<path transform="translate(1604,1258)" d="m0 0h1l1 15 2 8 5 2 3 1 1 5 3 2-9 3-9-4v-17l1-14z" fill="#04623D"/>
<path transform="translate(675,1382)" d="m0 0 1 3-6 13-3 9v3l10 2 18 1 9-1 1-1 2-14 2 3 2 6v8l-7 1-41 1 1-9 7-17z" fill="#B5F8EF"/>
<path transform="translate(765,1390)" d="m0 0h1l1 56-1 4 2 9-16 1-2-11-2-9 3 4 3 9 4-1 6-5v-25z" fill="#B5F8EF"/>
<path transform="translate(302,1170)" d="m0 0 1 3 7 2-1 9-3 11-2 8-1 7-2 2-1-37z" fill="#04613C"/>
<path transform="translate(885,1416)" d="m0 0 1 2-9 19-8 8-5 1-6-4v-2l-4-1-5-7 2-1v2l4 1 4 5 6 1 5-9 10-7z" fill="#E0FEFE"/>
<path transform="translate(542,998)" d="m0 0 1 2-5 13-3 11v11h-1l-1-5-5-1-5 2 2-6 4-9 4-11 3 3 5-9z" fill="#5D4636"/>
<path transform="translate(685,1351)" d="m0 0h6l4 3 2 13 10 23 5 14-3-1-7-19-8-18-6-10-2-1-8 22-6 13h-2l2-6 6-14 6-18z" fill="#037046"/>
<path transform="translate(521,1329)" d="m0 0h2l3 7h-3l-1 2-1 101-1 18h-1v-126z" fill="#037248"/>
<path transform="translate(1654 1e3)" d="m0 0 3 3 1 3h-2l1 13-3 10-5-2-2-2 1-20 4-3z" fill="#03633E"/>
<path transform="translate(845,1368)" d="m0 0h2v12l-5 8-3 3-2-1 2-5-1-5-8-2-1-4 3-5 6 1 1 1h5z" fill="#E7FDFC"/>
<path transform="translate(681,1375)" d="m0 0 5 2-1 10-4 8-4 3-5-1v-6l7-15z" fill="#F2FFFF"/>
<path transform="translate(1177,1296)" d="m0 0h12l8 4v4l-9 2-13-2-3-3 1-3z" fill="#FEFEFE"/>
<path transform="translate(578,1281)" d="m0 0h2l-2 4-5 4-12 4-9 1h-14l-12-3v-1l12-1 4 1h11l11-3 2-2h4l1-2 2 1z" fill="#036942"/>
<path transform="translate(819,1086)" d="m0 0h3l1 4 5 3 1 5-8 3-10-2-2-1 1-5z" fill="#FDFEFE"/>
<path transform="translate(1115,1247)" d="m0 0h1l1 17 4 6 6 3 15 1 9-4 1-2h2l5 8v3l-5-1h-7l-3 1v-2h-12l-9-2-5-5-3-5z" fill="#B5F8EF"/>
<path transform="translate(1628,1212)" d="m0 0h1l3 9 4 6-1 2-2-2h-6l-7 3-2 3-4-10 1-2h4l2-4 3-2h3z" fill="#B5F8EF"/>
<path transform="translate(1040,1345)" d="m0 0 8 1 5 4-8 4-5 5-6 5-1-5v-8z" fill="#03643E"/>
<path transform="translate(1602,1206)" d="m0 0 4 4h-3l-5-2-1 4-3 2-1 3h2l1 5h2l2 8-3-1-3-6-6-4-5-1-1-7 8-3z" fill="#04623E"/>
<path transform="translate(1712,943)" d="m0 0 1 2-3 8-8 8 1 4 3 2-2 2-7 2-6 3h-2l1-6h2l2-4 11-13z" fill="#E0FEFE"/>
<path transform="translate(557,1370)" d="m0 0 5 2 1 4-1 9v3l2 1-6 4-5 1 1-15h-3l2-4z" fill="#03643F"/>
<path transform="translate(1127,1202)" d="m0 0 5 1 7 6 4 8-5 1-13-2 1-12z" fill="#0C5232"/>
<path transform="translate(702,1192)" d="m0 0 6 2 2 2v7l5 2-2 5-4 1-2-4-5-1 3-3-4-3-4-1-1 3-1-1v-5-3z" fill="#F3FFFF"/>
<path transform="translate(675,964)" d="m0 0h5v2l-18 6-9 4h-2v2l-9 2-9 1 1-3 6-3 9-3 13-4z" fill="#443025"/>
<path transform="translate(1311,1346)" d="m0 0h19l9 3 8 5 5 6-1 2-7-7-11-5-4-1h-17l-8 2-9 6-10 9-2 1 2-6 4-5 17-9z" fill="#037349"/>
<path transform="translate(1017,1437)" d="m0 0 4 2 7 8-5 4-4 4h-8l-5-4-3-1-1 2-1-7 6 1 4 4h6z" fill="#EFFEFE"/>
<path transform="translate(424,1258)" d="m0 0 4 5 3 10 5 3 11 1v4l-12 1-6-3-3-5-3-6-3 1 3-9z" fill="#F1FEFE"/>
<path transform="translate(916,1419)" d="m0 0 6 1v2l5 1 7 7h-10v2l-12-1 1-10z" fill="#085131"/>
<path transform="translate(499,1244)" d="m0 0h1l1 11 4 12 1 4-3-2-3 1v2l-7 5-1 9-2 2v-8l-1-4-17-2-4-2 2-1 11 2 9-1 5-3 5-7-1-6z" fill="#B5F8EF"/>
<path transform="translate(623,1188)" d="m0 0h1v74l-1 22-2 3v-43l1-36v-17z" fill="#036E45"/>
<path transform="translate(931,1212)" d="m0 0 7 1 3 3-20 11-7 1-1 2-2-1 3-4h2v-2l9-7 3-3z" fill="#04623D"/>
<path transform="translate(921,1340)" d="m0 0 1 2-5 12-7 15-3 9-13 28-3 8-6 12-1-3 8-18 10-24 10-23 8-17z" fill="#036D45"/>
<path transform="translate(866,1196)" d="m0 0h2l4 11v14l-4 9-7 3-6 1-4-1 1-3 10-5 6-7 1-3v-11z" fill="#037449"/>
<path transform="translate(966,1417)" d="m0 0 3 1v2h3l1 2 3 1 5 13 2 10-1 10-2-1-3-11-2-10-3-5-5-6z" fill="#04633E"/>
<path transform="translate(1374,1259)" d="m0 0 2 4 3 20 1 7-4 2h-10l-3-7-1-7 2 2 2 4 5 2v-2h2l2-6z" fill="#036841"/>
<path transform="translate(849,1405)" d="m0 0 2 1-9 7-1 7 8 11 8 10-1 2-6-6-3-1-1 4-4-1-2-5 2-3 1-3-4-6-2-11 3-3z" fill="#04633E"/>
<path transform="translate(866,1197)" d="m0 0 3 4 1 3v11l-3 6-5 5-2-1 3-3 1-7-3-3-7 1-1-1v-6l4-1 3 3 5-1 1-1z" fill="#D7FDFA"/>
<path transform="translate(1107,1443)" d="m0 0v3l-8 7-11 5-14 2h-17l-16-4-5-3 2-1 21 5h12l11-1 4-2 7-1 9-5z" fill="#037147"/>
<path transform="translate(468,1224)" d="m0 0 1 2-4 16-3 16-4-1-1-2v-9l6-17 3-1z" fill="#085433"/>
<path transform="translate(869,1240)" d="m0 0 2 1-9 8 1 6 6 7-1 2-7-8-12-4v-2l-4 1h-7l1-4 10-1 3 1 1-2 4 2 7-4z" fill="#037449"/>
<path transform="translate(703,1187)" d="m0 0 5 5 2 4-6-3-9 1-2 1 1 9 6 2-4 2 1 7 1 4-3 6-8 4-4 1 4-5 7-4 1-4-3-8-4-4-3-6 3 1 2 6h2l-1-3v-9l5-3 6-2z" fill="#544B39"/>
<path transform="translate(1283,1421)" d="m0 0 6 5v2l4 2 5 4 12 3h15l16-6 2 1-14 7-7 2h-9l-11-2-8-4-5-4-6-8z" fill="#B5F8EF"/>
<path transform="translate(401,1264)" d="m0 0v3l-7 6-11 4-11-1-10-6-2-4 4 1 8 3 6 1h10l8-1 1-3h2v-2z" fill="#E5FEFD"/>
<path transform="translate(764,1433)" d="m0 0h1v14l-8 7-4-1-4-11v-2h-2l-1-4h2l3 3 10 3h2z" fill="#E1FEFE"/>
<path transform="translate(785,1220)" d="m0 0 2 1v24l2 41 2 5 4 2-4 1-6-3 1-4-1-1z" fill="#CAFBF6"/>
<path transform="translate(1225,1385)" d="m0 0 2 2 12 28 8 20 6 14-1 4-6-15-6-11-4 1v5l-2-2v-7l3-2-1-7-4-9-7-18z" fill="#037449"/>
<path transform="translate(466,1270)" d="m0 0 6 3 17 3 2 4-2 11-4 2h-14v-1l7-2 2-3h4v-2h2l-1-5-1-2-16-4z" fill="#03754A"/>
<path transform="translate(807,1246)" d="m0 0 11 2 13 3 6 3-2 1-5-2h-21l1 24h-1l-3-21z" fill="#B6F8EF"/>
<path transform="translate(700,1245)" d="m0 0 7 1 2 1-1 7-5 4-9 4 2-12z" fill="#422E24"/>
<path transform="translate(545,1406)" d="m0 0 5 2-4 10-2 9-2 21h-1l-1-18v-15l3-6z" fill="#B5F8EF"/>
<path transform="translate(842,1188)" d="m0 0 12 1v1l-21 1-10 6-6 2-4 1-1 2 1-9 2-2 8-2z" fill="#E3FFFF"/>
<path transform="translate(765,1376)" d="m0 0h1l1 7 1 17v31l1 22 2 4 8 2v1h-8l-3-1-3-10 1-8z" fill="#03754A"/>
<path transform="translate(650,1230)" d="m0 0h3l4 8v3l1 1 4 2-1 8-6-4-4-6-4-4-1-3 2-4z" fill="#423729"/>
<path transform="translate(1407,1204)" d="m0 0h10l3 4v5l-6 4-5 1-3-3z" fill="#085433"/>
<path transform="translate(1109,1355)" d="m0 0h1l1 11 4 17 1 1v8l-2-3-2-5-12 2h-7v-1l13-2h2v-11l-2-6v-4h-2l1-2h2z" fill="#D7FDFA"/>
<path transform="translate(1265,1204)" d="m0 0 9 1 3 2v7l-3 10v28l4 16-3-3-3-9-1-6v-27l3-8-1-7-12-2z" fill="#037047"/>
<path transform="translate(1322,1451)" d="m0 0 6 1 1 2 5-1h8l-2 2-9 3-16 1-16-2-7-3 3-1 10 2 15 1v-2h2z" fill="#03653F"/>
<path transform="translate(914,1405)" d="m0 0h1l1 5 4 2h32l5-3h2v-4h2l2 9-10 1h-39z" fill="#B5F8EF"/>
<path transform="translate(1083,1209)" d="m0 0h1l2 7 4 9v2l-9-2-5-4-1-8 4-2h3z" fill="#B5F8EF"/>
<path transform="translate(559,1391)" d="m0 0 2 1 2 4 7 7 8 7 9 11 1 5h2v2l3 1-1 2-7-6-6-10-6-7-2-1v-2l-4-1-4-4v-2l-8 1-3-2v-3z" fill="#036D45"/>
<path transform="translate(851,1343)" d="m0 0 3 1v2h2l7 12-2 5-4 1-4-5-1-8-1-1z" fill="#095131"/>
<path transform="translate(1279,1319)" d="m0 0h9l1 2-3 3-10 4-6 2-4-1 1-4 9-5z" fill="#F3FFFF"/>
<path transform="translate(941,1215)" d="m0 0h10l11 4 2 1v2l4 2 6 13-1 5-2 1-13 1-9-1v-1l18-1 5-1-4-11-6-7-10-4-8-1-14 7-2-1 9-6z" fill="#037348"/>
<path transform="translate(1460,1277)" d="m0 0 8 1 3 3 2 4 2 1-2 5-7 1-10-1v-1l9-1-1-5h-2v-3l-2-1z" fill="#04633E"/>
<path transform="translate(1167,1422)" d="m0 0 5 1 9 3 9 2v3l2 1h-13l-10-2v-4h-2z" fill="#095131"/>
<path transform="translate(887,1414)" d="m0 0 1 3-8 17-4 8-5 7-3 2-5-1-7-9 2-1 4 4 4 1 5-3 6-7z" fill="#B5F8EF"/>
<path transform="translate(1097,1407)" d="m0 0 2 2 1 8-2 9-4 6-4 2 1-2v-8l-1-5 6-5z" fill="#D8FCF8"/>
<path transform="translate(1171,1261)" d="m0 0 4 5 9 6 9 2 16-1-4 3-9 3-9-1-8-4-7-8z" fill="#B5F8EF"/>
<path transform="translate(976,1214)" d="m0 0 19 1 5 4h5l-1 6-4 4h-2l1 5-2-1 1-7v-3l-7-5-8 1-6-2z" fill="#F0FEFE"/>
<path transform="translate(1405,1205)" d="m0 0 3 1-1 9 3 2h4l1-2 4-3 1 4-5 1v2l-7 2-5-1-2-2-1-3 1-6-1-3z" fill="#03633E"/>
<path transform="translate(1170,1399)" d="m0 0h1l-1 11 1 2h29l5-1h7l-1-8 2 3 1 8-6-1-12 2-25 1-3-2v-8z" fill="#B5F8EF"/>
<path transform="translate(1886,885)" d="m0 0h6l-4 4-16 7-8 3-3-1 9-4 1-6 4-1z" fill="#E3FEFE"/>
<path transform="translate(1184,1204)" d="m0 0h7l3 7 3 2 1 5-9 1v-5l-4-2-2-7z" fill="#04633E"/>
<path transform="translate(1062,1238)" d="m0 0 6 1 7 4 2 6-2 2-4-1-2-2-4-1v-2l-4-1-2-5z" fill="#F2FFFF"/>
<path transform="translate(602,1189)" d="m0 0h1v12l-2 12-6 1h-6l-4 3-5-1-1-2 13-6 7-1 2-7z" fill="#F1FFFF"/>
<path transform="translate(1355,1293)" d="m0 0h13v1l-11 2-8 2-8-2h-35l-8-1v-1z" fill="#F3FFFF"/>
<path transform="translate(1392,1222)" d="m0 0h10l10 2v2l-9-1h-11l-9 4h-2l-3 9-1 5-1 20h-1v-21l3-13 4-5 7-1z" fill="#B5F8EF"/>
<path transform="translate(1291,1278)" d="m0 0 8 1 7 2 4 2-1 4-7 3-4-1-2-5-2-4-3-1z" fill="#04633E"/>
<path transform="translate(1084,1229)" d="m0 0h5l1 4h2v7l1 2-1 2-5-1-5-6v-6z" fill="#F2FEFE"/>
<path transform="translate(405,1255)" d="m0 0h1l-1 9-6 9h-2l-1 3-8 2h-14l-7-3-7-5 1-2 9 6 8 2 9-1 10-5 5-6z" fill="#037449"/>
<path transform="translate(819,1240)" d="m0 0 9 1 6 7-1 1h-7l-10-3-1-2z" fill="#095131"/>
<path transform="translate(257,1236)" d="m0 0h26l4 3-5 1h-26l-3-2z" fill="#04633E"/>
<path transform="translate(378,1218)" d="m0 0h12l8 3 4 6 3 7-1 3-6-10-5-4-8-2h-9l-10 3 1-3 5-2z" fill="#036D44"/>
<path transform="translate(1035,1427)" d="m0 0 7 6 8 4 11 3h8l13-3 6-3 2 1-10 5-11 3h-7l-16-4-8-6-3-4z" fill="#B5F8EF"/>
<path transform="translate(514,1284)" d="m0 0 4 1 1 2-5 3-5 5h-14l-6-2 2-2h14l3-1 4-5z" fill="#F1FEFE"/>
<path transform="translate(1509,1206)" d="m0 0 5 1 1 1 1 24-2-2v-6l-2-2 1-9h-6l-1 4-2-1 1-8z" fill="#037047"/>
<path transform="translate(1575,1220)" d="m0 0h8l10 3 1 2-7-1h-10l-12 4-5 2-2 6h-2l2-6 6-5 8-4z" fill="#B5F8EF"/>
<path transform="translate(1052,1215)" d="m0 0 4 2 3 3h7l2-2 1 5-1 1-9-1-13-4h-15l-6 1 4-3 4-1h18z" fill="#036F46"/>
<path transform="translate(628,1445)" d="m0 0 2 3 1 4 5-4 3-1 4 6-1 3-7 1-7-2-1-1z" fill="#03633E"/>
<path transform="translate(733,737)" d="m0 0 27 2v1l-49 1-22 1v-1z" fill="#5E4737"/>
<path transform="translate(1146,1417)" d="m0 0 2 4-2 2-2 10-1 4h-4v-3h-2l2-9 4-7z" fill="#095131"/>
<path transform="translate(1214,1258)" d="m0 0 4 1-1 10-2 1h-7l-2-2 1-4z" fill="#FBFDFD"/>
<path transform="translate(1160,1419)" d="m0 0h1l1 10 2 1 21 2v1h-19l-8-1-5 5v-3h2v-8z" fill="#037449"/>
<path transform="translate(1320,1281)" d="m0 0 2 1v8l12 1v1h-27l-2-2 10-5z" fill="#B5F8EF"/>
<path transform="translate(1143,1407)" d="m0 0 1 3-8 19-8 13-1 4v9l1 2-4-1v-13l9-13 6-14z" fill="#B5F8EF"/>
<path transform="translate(763,1425)" d="m0 0h1v17l-2 2-14-6v-1l10-3h5z" fill="#F3FFFF"/>
<path transform="translate(791,1412)" d="m0 0 11 1 3 2h-13l-4 6-2 33-2 4-1-2 1-3 1-22v-11l4-7z" fill="#B7F8EF"/>
<path transform="translate(943,1289)" d="m0 0h14l7 2-2 2-18 1h-11l-1-2 11-1z" fill="#036942"/>
<path transform="translate(1603,1259)" d="m0 0h1v21l1 3 4 2 3 6-4 2-6-3v-17z" fill="#03754A"/>
<path transform="translate(1501,1267)" d="m0 0h1v13l3 4 6-1 4 1-1 5h-10l-2-2-1-4-4-2 1-4 2-3z" fill="#04633E"/>
<path transform="translate(686,1354)" d="m0 0 5 5 3 5-1 2-2-3-5 1-9 18-1-3 6-16z" fill="#B5F8EF"/>
<path transform="translate(878,1139)" d="m0 0h17l5 3-4 2-23-1v-2z" fill="#422E24"/>
<path transform="translate(321,1211)" d="m0 0 2 1v11l7 2 4 6v2h2l2 4h-3l-5-6-8-3-1-7z" fill="#EBFEFD"/>
<path transform="translate(888,1200)" d="m0 0h1l1 10v20l-5 1-10 9-2-1 9-8 5-10z" fill="#B5F8EF"/>
<path transform="translate(1015,913)" d="m0 0 2 1 5 12 7 15 5 10-1 3-5-8-13-28z" fill="#49382B"/>
<path transform="translate(1056,1263)" d="m0 0 2 2v7l-4 3-10 3h-13l-6-1v-1l18-1 7-3 5-3z" fill="#B5F8EF"/>
<path transform="translate(1188,1356)" d="m0 0 3 1 3 6-1 2h-4l-5 8-4 5 2-9 5-12z" fill="#B5F8EF"/>
<path transform="translate(1379,1290)" d="m0 0 1 2-4 2h-36l-6-2v-1h42z" fill="#DEFDFC"/>
<path transform="translate(1308,1329)" d="m0 0h26l15 5 8 5v2l-5-2-8-4-7-2-4-1-2-1h-27z" fill="#036F46"/>
<path transform="translate(336,1259)" d="m0 0 3 1 1 4-2 2-2 11-3 4-7-1-4-2 1-4 9 3 2-3z" fill="#F1FEFE"/>
<path transform="translate(689,1406)" d="m0 0 10 1 2 3-3 3h-8l-5-2v-4z" fill="#F3FFFF"/>
<path transform="translate(772,1403)" d="m0 0 6 1-3 7-3 5-3 1-1-2 1-11z" fill="#095131"/>
<path transform="translate(1155,1380)" d="m0 0 1 3-5 13-5 12-5 16-3 4-1-3 12-31z" fill="#037348"/>
<path transform="translate(1312,1348)" d="m0 0h17l11 4 2 2-5-1-11-3h-8l-16 4-6 4-2-1 8-6 4-2z" fill="#B5F8EF"/>
<path transform="translate(557,1370)" d="m0 0 5 2 1 4-1 6-4 4-2-6-1-4-1-2z" fill="#037449"/>
<path transform="translate(629,1437)" d="m0 0 1 3-5 10-3 3-6-1-10-10h3l8 6 5-1 6-8z" fill="#B5F8EF"/>
<path transform="translate(1187,1328)" d="m0 0 7 1 5 5h-3l-3-3h-7l-5 5-5 6-1 3h-2l-2 7-4 6-1-2 8-16 11-11z" fill="#037348"/>
<path transform="translate(1489,1290)" d="m0 0 23 1-1 2-3 1h-19l-8-1v-1z" fill="#CCFBF7"/>
<path transform="translate(1461,1205)" d="m0 0h11l4 2 8 1 2 2 6 2-3 1-12-3-9-1-4-2-7 1v-2z" fill="#04633E"/>
<path transform="translate(935,1354)" d="m0 0 3 3 2 6-7 1-4 9-3 7-1-3 5-15z" fill="#B5F8EF"/>
<path transform="translate(935,1352)" d="m0 0 5 4 3 9-5-5-3-5-5 9-6 18-1 2-2-1 8-22 4-8z" fill="#037046"/>
<path transform="translate(1106,1367)" d="m0 0h2l1 5v9l-3 3-15 2-1-2 16-3 1-2-4-5 2-5z" fill="#F0FEFE"/>
<path transform="translate(693,1194)" d="m0 0 3 2v5l1-2 6 1 3 4-3 3-9-2-2-7z" fill="#FBFEFE"/>
<path transform="translate(1829,908)" d="m0 0h4l1 3-19 5h-4l1-4z" fill="#DCFCF9"/>
<path transform="translate(1231,1397)" d="m0 0h2l4 7 3 10 8 19 1 6-3-4-11-27z" fill="#BBF8F0"/>
<path transform="translate(1170,1404)" d="m0 0 1 4 11 2 3 1 15 1v1h-29l-2-5z" fill="#E3FFFF"/>
<path transform="translate(1376,1373)" d="m0 0h2l1 3v12l1 3-1 4-1 12-2 2z" fill="#04633E"/>
<path transform="translate(792,1414)" d="m0 0h9l-4 3-4 4-4 5-1 10h-1v-15z" fill="#EDFFFF"/>
<path transform="translate(933,1407)" d="m0 0h17l2 1v2l-2 1h-16l-2-1z" fill="#F3FFFF"/>
<path transform="translate(849,1405)" d="m0 0 2 1-9 7-1 7 5 7-1 2-4-4-2-3-2-11 3-3z" fill="#037449"/>
<path transform="translate(1029,1202)" d="m0 0h21l8 2 5 4-1 2-4-3-5 1-3 2v-3l-2-1 1-2h-20z" fill="#046942"/>
<path transform="translate(1173,1268)" d="m0 0 8 6 10 4 9-1 9-4 2 1-9 6-11 1-10-4-8-7z" fill="#037248"/>
<path transform="translate(1449,1265)" d="m0 0 9 6 4 2h20v2l-3 1h-18l-8-5-4-4z" fill="#B8F8F0"/>
<path transform="translate(710,1196)" d="m0 0 4 5 4-1 3-1 2-3 1 3v9l-6-1-7-6z" fill="#5E4737"/>
<path transform="translate(568,1228)" d="m0 0 3 3 3 7v4l-22 1-22-1v-1l42-1-4-10z" fill="#03754A"/>
<path transform="translate(628,1437)" d="m0 0 1 2-7 9-5 1-7-5 2-1 6 1z" fill="#E3FFFF"/>
<path transform="translate(1358,1444)" d="m0 0h2v9l-1-2-11 1-6 1 1-2 5-1v-2z" fill="#03754A"/>
<path transform="translate(549,1409)" d="m0 0 4 1v2h-2l-1 10-6 5 1-9z" fill="#E1FEFE"/>
<path transform="translate(1306,1347)" d="m0 0m-2 1h2v2l-10 6-12 11v-3l4-7 9-5z" fill="#03754A"/>
<path transform="translate(786,1270)" d="m0 0 2 1 1 15 2 5 4 2-4 1-6-3 1-4-1-1v-11z" fill="#D5FCF9"/>
<path transform="translate(1447,1261)" d="m0 0 3 1 5 5 4 2 9 2 8 2v1h-14l-9-5-6-5z" fill="#DFFEFD"/>
<path transform="translate(1e3 1225)" d="m0 0h2v8l4 3 4 1-1 7-4-2-6-9z" fill="#05603B"/>
<path transform="translate(1419,1216)" d="m0 0 2 4 4 12h2l-2 4-7-7-5-4 5-1z" fill="#B5F8EF"/>
<path transform="translate(1358,1396)" d="m0 0h2v9l-2 8-4 8-2-3 2-4 1-7 2-3z" fill="#D3FCF8"/>
<path transform="translate(1359,1341)" d="m0 0 7 6 9 14 3 7v3h-2l-4-10-6-9-8-9z" fill="#036F46"/>
<path transform="translate(401,1264)" d="m0 0v3l-7 6-11 4-11-1-8-5 2-1 6 3 4 1h10l9-4 2-3h2v-2z" fill="#B9F8F0"/>
<path transform="translate(1338,1206)" d="m0 0h19l1 2-1 6h-1v-6l-9 3-7-2z" fill="#E2FEFE"/>
<path transform="translate(1090,1203)" d="m0 0h2l2 8-2 3h-2l-1 2-3-5v-6z" fill="#04623D"/>
<path transform="translate(722,780)" d="m0 0h12l9 3 1 2-19-1v-2h-3z" fill="#422E24"/>
<path transform="translate(1110,1383)" d="m0 0 3 1 3 8 1 18v9l-2-4-1-20-3-8h-4l1-3z" fill="#036F46"/>
<path transform="translate(1060,1325)" d="m0 0h13l8 2 1 2-8-1h-10l-16 2v-2l5-2z" fill="#D3FBF7"/>
<path transform="translate(867,1243)" d="m0 0 2 1-3 8v3l3 5 4 5-1 2-10-12-1-6z" fill="#B5F8EF"/>
<path transform="translate(1023,1382)" d="m0 0 1 2-1 14 3 14 3 6-1 2-3-5-5-14v-8l2-10z" fill="#036F46"/>
<path transform="translate(871,1214)" d="m0 0h1v7l-4 9-7 3-6 1-2-3 11-3 4-2z" fill="#04633E"/>
<path transform="translate(431,1207)" d="m0 0h1l1 10h-8l-4 2h-6l-2-2 10-4h8z" fill="#EDFEFD"/>
<path transform="translate(1292,1453)" d="m0 0 22 3 17 1v1l-16 1-16-2-7-3z" fill="#037248"/>
<path transform="translate(968,1252)" d="m0 0h10v2l-18 2h-21l-4-2 4-1 3 1h15z" fill="#037349"/>
<path transform="translate(1512,1291)" d="m0 0h29l2 2-10 1-8 1-4-1h-13z" fill="#EFFEFE"/>
<path transform="translate(1498,1235)" d="m0 0 3 4 1 5v12l-2 10-3 3-2-1 3-4 1-10v-14z" fill="#B6F8EF"/>
<path transform="translate(1325,1204)" d="m0 0 2 1-2 2-1 4v23h-2l-1-18-1-9z" fill="#037046"/>
<path transform="translate(1680,1212)" d="m0 0h7l2 2-5 5-5 1-1-7z" fill="#095736"/>
<path transform="translate(478,1211)" d="m0 0 5 2h3l3-1-2 4-6 4h-4l-1-5z" fill="#125132"/>
<path transform="translate(771,1435)" d="m0 0h3l-1 14h-2v2h-3l1-15h2z" fill="#095131"/>
<path transform="translate(559,1391)" d="m0 0 2 1 2 4 5 6-5-2v-2l-8 1-3-2v-3z" fill="#09754C"/>
<path transform="translate(710,1263)" d="m0 0h5l3 4 1 5-6 1-3-6z" fill="#422E24"/>
<path transform="translate(650,1230)" d="m0 0 3 1 2 13-8-6-1-3 2-4z" fill="#403126"/>
<path transform="translate(701,1224)" d="m0 0v3l-6 12-10 5 2-4 3-1v-2l5-5z" fill="#5E4737"/>
<path transform="translate(500,794)" d="m0 0 4 2 8 7 9 10 3 4-1 3-8-10-11-11-4-3z" fill="#4D372B"/>
<path transform="translate(1041,1436)" d="m0 0 5 2 16 4 7 1v2h-12l-12-5z" fill="#037248"/>
<path transform="translate(702,1192)" d="m0 0 6 2 2 2-1 3-9-2-6-2 1-2z" fill="#D8FDFA"/>
<path transform="translate(1059,1290)" d="m0 0 2 1-5 3-7 2h-13l-6-1v-1l22-2z" fill="#DBFDFB"/>
<path transform="translate(1120,1273)" d="m0 0 12 3 12 1-2 5h-5v-3l-14-2z" fill="#036F46"/>
<path transform="translate(1129,1217)" d="m0 0 7 1 8 5 2-2 2 4-1 3-10-7-2-1h-6l-7 7-2-1 7-8z" fill="#B5F6ED"/>
<path transform="translate(878,1351)" d="m0 0 6 2 2 6-1 1h-6l-2-3v-5z" fill="#F3FFFF"/>
<path transform="translate(1107,1384)" d="m0 0m-7 1h7v2l-6 1-31 1 3-2z" fill="#037449"/>
<path transform="translate(795,1284)" d="m0 0 5 1 1 5-1 1-8 1-1-6z" fill="#095131"/>
<path transform="translate(638,928)" d="m0 0 1 3h-4v2l-7 2-8 1v2l-4-1v-2l10-3 5-2z" fill="#1F432B"/>
<path transform="translate(898,1392)" d="m0 0 1 3-9 21-4 10-2-3 8-18 5-12z" fill="#037147"/>
<path transform="translate(810,1281)" d="m0 0h1v10l-2 2h-14v-1h10l1-6 3-1z" fill="#03754A"/>
<path transform="translate(1370,1431)" d="m0 0h1l2 9 4 4v2l-8-1-1-11z" fill="#036E45"/>
<path transform="translate(1215,1391)" d="m0 0 3 4-1 5-2 3h-2l-3-8 1-3h3z" fill="#095131"/>
<path transform="translate(1227,1213)" d="m0 0h1v9l-1 4-2 1v13l-2-3-1-6 2-10 2-3z" fill="#04633E"/>
<path transform="translate(694,1212)" d="m0 0 4 4-1 6-3 4-7 3-4 1 4-5 7-4 1-4z" fill="#5C4737"/>
<path transform="translate(1242,1453)" d="m0 0h8l4 2-1 3-10 1-2-4z" fill="#095131"/>
<path transform="translate(704,1263)" d="m0 0 3 1 1 9-7 2-1-5-2-1 3-1 1 2z" fill="#F3FEFE"/>
<path transform="translate(1318,1349)" d="m0 0h8l4 2-20 2-7 3-4-1 9-4z" fill="#EBFFFF"/>
<path transform="translate(1221,1286)" d="m0 0h8l1 4 3 1-4 2-5-3-7-2z" fill="#B8F8F0"/>
<path transform="translate(714,1251)" d="m0 0 7 1 4 3 4-1 2 2-9 1-6-1v-2l-3 1-1-3z" fill="#F3FEFE"/>
<path transform="translate(299,1148)" d="m0 0h26l-1 2-15 1-12-1z" fill="#F3FFFF"/>
<path transform="translate(1375,1422)" d="m0 0 1 3-1 15 2 4-3-1-3-6v-6z" fill="#B5F8EF"/>
<path transform="translate(1392,1224)" d="m0 0h11l7 1v1l-17 1-12 4v-2l9-4z" fill="#E3FFFF"/>
<path transform="translate(1255,1206)" d="m0 0 3 1h-2l1 8v33h-1l-1-32-2-7-1-2z" fill="#B5F8EF"/>
<path transform="translate(442,1207)" d="m0 0h2l-1 7-3 2-2-1v-3h-3v-4z" fill="#04633E"/>
<path transform="translate(1365,1205)" d="m0 0h31v1l-10 2-2 1h-6l-3-2-10-1z" fill="#B5F8EF"/>
<path transform="translate(923,1335)" d="m0 0v3l-7 14-1-4v-7l4-4z" fill="#DAFCF9"/>
<path transform="translate(1068,1389)" d="m0 0 4 1h-3l-2 7 3-1 2 7h-5l-2-3v-7z" fill="#036942"/>
<path transform="translate(1265,1204)" d="m0 0 9 1 3 2v7l-3 5-1-2 1-7-1-2-12-2z" fill="#037248"/>
<path transform="translate(931,1329)" d="m0 0h9l6 4v3l-5-4-2-1h-7l-9 9v-3l6-7z" fill="#036F46"/>
<path transform="translate(1e3 1270)" d="m0 0 7 1 14 5-4 1-16-5v2h-2l-1 7h-1l1-8z" fill="#037047"/>
<path transform="translate(1506,1207)" d="m0 0 5 1 2 2v3h-6l-1 4-2-1 1-8z" fill="#04633E"/>
<path transform="translate(1226,1077)" d="m0 0h6l3 2-1 3h-9l-2-1v-2z" fill="#422E24"/>
<path transform="translate(541,1365)" d="m0 0h1l3 9 4 4 2-1-2 4-4 4-2-9-2-4z" fill="#B5F8EF"/>
<path transform="translate(222,1286)" d="m0 0 4 2 2 4h-10l-1-4z" fill="#085534"/>
<path transform="translate(1049,1259)" d="m0 0 5 1 1 6h-6l-2-3v-3z" fill="#F0FEFE"/>
<path transform="translate(858,1226)" d="m0 0 2 1-9 4-5 1h-11v-2l15-1 2-2z" fill="#BEF9F1"/>
<path transform="translate(1794,918)" d="m0 0h6v2l-14 5h-3v-3l8-2 2-1z" fill="#D7FCF8"/>
<path transform="translate(1275,1401)" d="m0 0 2 4 4 12 5 8v2l-4-2-4-8-3-11z" fill="#036E45"/>
<path transform="translate(1023,1384)" d="m0 0h1l1 20 3 7v5l-3-4-3-14z" fill="#C7FAF5"/>
<path transform="translate(901,1381)" d="m0 0 1 2-8 19h-1v-7l4-8h2l1-5z" fill="#C6FAF5"/>
<path transform="translate(1172,1289)" d="m0 0 7 3 11 1 2 2h-17l-3-3z" fill="#C4FAF4"/>
<path transform="translate(1362,1278)" d="m0 0 2 2 2 4 4 2 1 4-5 1-2-2z" fill="#04603B"/>
<path transform="translate(1457,1221)" d="m0 0m-1 1m-1 1v3l-5 4-4 9-2-1 3-11z" fill="#037449"/>
<path transform="translate(391,1290)" d="m0 0h5l1 2-11 2-15-1v-1l16-1z" fill="#036C44"/>
<path transform="translate(1025,1254)" d="m0 0 7 1-1 5h-6l-2-3z" fill="#F3FFFF"/>
<path transform="translate(1153,1249)" d="m0 0 3 2v2h2v6l-5-1-2-4v-4z" fill="#095131"/>
<path transform="translate(1051,1218)" d="m0 0 8 2h7l2-2 1 5-1 1-9-1-8-3z" fill="#037449"/>
<path transform="translate(1127,1202)" d="m0 0 5 1 2 2-4 1v3h-2l-1 7h-2l1-12z" fill="#08623E"/>
<path transform="translate(1098,1454)" d="m0 0h5l5 3 6 1v2l-10-1-8-3z" fill="#F2FFFF"/>
<path transform="translate(855,1393)" d="m0 0 4 1-2 5-4 4-2-1 1-6z" fill="#095131"/>
<path transform="translate(1335,1348)" d="m0 0 4 1 8 5 5 6-1 2-7-7-8-4z" fill="#036E45"/>
<path transform="translate(604,1329)" d="m0 0h8l1 1-1 7-6-4v-2l-4-1z" fill="#036A43"/>
<path transform="translate(1690,1282)" d="m0 0 2 3-1 4-8 2h-14v-1l12-1 7-2z" fill="#036C44"/>
<path transform="translate(1761,915)" d="m0 0 3 1-1 2-4 1-12 5-2 1-2-2z" fill="#CDFBF7"/>
<path transform="translate(1816,901)" d="m0 0h3l-1 3-9 3-4-1 2-3z" fill="#F0FEFE"/>
<path transform="translate(727,1237)" d="m0 0h2l1 5 5 2 5 1 7-2-3 3-3 1h-7l-6-5z" fill="#46513A"/>
<path transform="translate(737,1213)" d="m0 0 7 1 2 2-10 2-3 6-1-4 3-6z" fill="#5E4737"/>
<path transform="translate(1043,1256)" d="m0 0 7 1 7 2 3 7-1 6h-1l-2-9-3-3-10-3z" fill="#036D45"/>
<path transform="translate(1129,1219)" d="m0 0h6l5 3v1h-14z" fill="#EDFFFF"/>
<path transform="translate(1620,1084)" d="m0 0 2 1-4 2 1 5-7-1-2-3z" fill="#DDFCF9"/>
<path transform="translate(621,1458)" d="m0 0h12l-4 2-5 1h-10l-6-1v-1h10z" fill="#CBFBF6"/>
<path transform="translate(1222,1238)" d="m0 0 2 3v16l-2 7h-1v-9l1-1z" fill="#C6FAF5"/>
<path transform="translate(976,1214)" d="m0 0 16 1v2l-9 2-6-2z" fill="#ECFEFD"/>
<path transform="translate(1166,887)" d="m0 0h2l-1 6v4h-3l-1 5h-2l1-6z" fill="#4B362A"/>
<path transform="translate(698,1381)" d="m0 0 3 1 2 9-5-1-1-8z" fill="#F2FFFF"/>
<path transform="translate(1360,1273)" d="m0 0h2l3 16 1 2-5-1z" fill="#03754A"/>
<path transform="translate(947,1251)" d="m0 0 1 2 4-1 10 1v1l-5 1h-15l-1-2h6z" fill="#055C39"/>
<path transform="translate(910,1230)" d="m0 0 2 3-2 5v10l-2 2-2-6z" fill="#04633E"/>
<path transform="translate(703,1187)" d="m0 0 5 5 2 4-6-3h-8v-2l6-2z" fill="#46523B"/>
<path transform="translate(458,1176)" d="m0 0h2l3 6v4h-2v-2l-4-1-1-6z" fill="#06623D"/>
<path transform="translate(1299,1457)" d="m0 0 16 1 6 1v1h-19z" fill="#CCFAF5"/>
<path transform="translate(662,1418)" d="m0 0h5l-3 2v10l-4-2v-8h2z" fill="#04633E"/>
<path transform="translate(1891,972)" d="m0 0 2 1-9 8-6 3 2-4 5-4h2v-2z" fill="#1D4E32"/>
<path transform="translate(1197,853)" d="m0 0 1 4-4 10h-2l-1-7 4-2z" fill="#483328"/>
<path transform="translate(551,1412)" d="m0 0h3l-1 8-6 7-2-1 4-4z" fill="#F2FFFF"/>
<path transform="translate(869,1264)" d="m0 0 5 4 6 7 6 5h-3l-10-9-4-5z" fill="#036F46"/>
<path transform="translate(404,1240)" d="m0 0 2 1v14l-3 9h-1v-8l2-3z" fill="#D1FBF8"/>
<path transform="translate(739,1218)" d="m0 0 3 1 1 5 4 1-4 1-8 1 4-5z" fill="#2D593C"/>
<path transform="translate(748,1443)" d="m0 0 2 3 3 13-5 1 1-5z" fill="#037449"/>
<path transform="translate(1302,1291)" d="m0 0 3 1-7 3h-11v-2z" fill="#C5FAF4"/>
<path transform="translate(1568,1205)" d="m0 0 3 1-12 5-4-1-4-4 8 2z" fill="#B5F8EF"/>
<path transform="translate(1776,924)" d="m0 0 7 1-4 2-11 3 1-3z" fill="#D5FCF8"/>
<path transform="translate(693,914)" d="m0 0h11l-4 3-12 2-2-2 7-1z" fill="#085231"/>
<path transform="translate(1829,898)" d="m0 0h5l-1 3-12 2-1-3z" fill="#ECFEFE"/>
<path transform="translate(1085,1454)" d="m0 0 4 2-5 1v2h-10l-3-2 11-1z" fill="#036C44"/>
<path transform="translate(625,1439)" d="m0 0v3h-2l-2 4-4 1-7-3 2-1 6 1z" fill="#F1FFFF"/>
<path transform="translate(1176,1339)" d="m0 0v3l-1 3h-2l-2 7-4 6-1-2 7-14z" fill="#03754A"/>
<path transform="translate(568,1228)" d="m0 0 3 3 3 7v4h-8l2-2h4l-4-10z" fill="#037047"/>
<path transform="translate(814,1226)" d="m0 0 12 2v1l6 1v1h-9l-10-3z" fill="#D5FBF7"/>
<path transform="translate(1622,1069)" d="m0 0h2l-1 4h-2l-1 6h-2l-2 4-2 1 2-6z" fill="#0F5736"/>
<path transform="translate(208,979)" d="m0 0 3 4 5 9v3h-2l-6-11z" fill="#4B362A"/>
<path transform="translate(825,880)" d="m0 0h1v17h-3v-11h1z" fill="#057349"/>
<path transform="translate(1359,1341)" d="m0 0 7 6 3 4-1 3-10-11z" fill="#036D44"/>
<path transform="translate(1610,1215)" d="m0 0 3 1v2l9-2-3 5-4 1-3-3z" fill="#DDFEFD"/>
<path transform="translate(813,893)" d="m0 0 4 2-2 2-12 1 1-2z" fill="#196945"/>
<path transform="translate(864,1359)" d="m0 0 3 4 2 7-1 10-2-3v-10l-2-5z" fill="#03754A"/>
<path transform="translate(1295,1273)" d="m0 0h6v2l-3 1h-10l-3-2z" fill="#CEFBF7"/>
<path transform="translate(827,1228)" d="m0 0 23 1v1l-18 1-5-1z" fill="#eff"/>
<path transform="translate(669,969)" d="m0 0m-4 1h4v2l-15 5-3-1z" fill="#5E4737"/>
<path transform="translate(1038,963)" d="m0 0 3 4 4 9v3h-2l-5-11z" fill="#463A2C"/>
<path transform="translate(1332,1439)" d="m0 0 1 3-5 2h-13v-1l15-3z" fill="#04633E"/>
<path transform="translate(658,1415)" d="m0 0 1 4-3 7-1 5h-1v-9z" fill="#04633E"/>
<path transform="translate(1210,1400)" d="m0 0h1l1 11h-5v-3h2v-7z" fill="#E9FEFD"/>
<path transform="translate(1211,1289)" d="m0 0 3 1-9 4-10 1v-2z" fill="#BDF9F2"/>
<path transform="translate(1423,1226)" d="m0 0h7l-2 6-3 1-2-3z" fill="#DFFDFB"/>
<path transform="translate(372,1219)" d="m0 0h13v1l-13 2-6 2 1-3z" fill="#037147"/>
<path transform="translate(267,1052)" d="m0 0 4 2 11 7-3 1-12-8z" fill="#41392B"/>
<path transform="translate(583,1419)" d="m0 0 4 2 1 5h2v2l3 1-1 2-7-6z" fill="#03643F"/>
<path transform="translate(1111,1380)" d="m0 0 2 1-1 3-12 2h-7v-1l13-2z" fill="#B5F8EF"/>
<path transform="translate(1151,1254)" d="m0 0 2 1 2 8v7l-2-2-2-8z" fill="#037349"/>
<path transform="translate(1137,1211)" d="m0 0 4 1 2 5-5 1v-3l-2-1z" fill="#115B39"/>
<path transform="translate(1362,1209)" d="m0 0 6 1-3 2h-4v16h-1v-18z" fill="#04633E"/>
<path transform="translate(591,1116)" d="m0 0 5 1 5 2v2h2v2l-6-1-3-3-3-1z" fill="#493429"/>
<path transform="translate(661,1229)" d="m0 0h3l-1 5-2 3h-3l2-7z" fill="#095131"/>
<path transform="translate(872,1126)" d="m0 0h7l1 4h-6l-3-3z" fill="#422E24"/>
<path transform="translate(675,917)" d="m0 0 8 1-4 3-8 1v-2z" fill="#234F33"/>
<path transform="translate(1097,1416)" d="m0 0h1l-1 8-3 6-1-2 2-9z" fill="#E3FFFF"/>
<path transform="translate(913,1351)" d="m0 0 2 1-3 9-2 2v-8z" fill="#D7FCF8"/>
<path transform="translate(928,1327)" d="m0 0 11 1v1l-10 2-4 3 1-5z" fill="#D0FBF7"/>
<path transform="translate(652,1231)" d="m0 0 3 3 3 5-1 2 1 1 1 2h-4z" fill="#095131"/>
<path transform="translate(846,1429)" d="m0 0 5 5 6 7-1 2-8-9z" fill="#037348"/>
<path transform="translate(890,1410)" d="m0 0h2l-1 4-6 12-1-3z" fill="#036E45"/>
<path transform="translate(703,1277)" d="m0 0 4 1-5 3h-5l-2-3z" fill="#422E24"/>
<path transform="translate(1e3 1225)" d="m0 0h2v9l1 4-3-3-1-7z" fill="#037046"/>
<path transform="translate(1355,1410)" d="m0 0h2v6l-3 5-2-3 2-4z" fill="#D7FCF9"/>
<path transform="translate(1118,1383)" d="m0 0 3 2v4l-4 1-1-1v-5z" fill="#FEFEFE"/>
<path transform="translate(701,1231)" d="m0 0 2 1v2l3-1-1 4-3 3-2-4v-3z" fill="#F3FEFE"/>
<path transform="translate(1577,1223)" d="m0 0h10v1l-9 2h-7l2-2z" fill="#E3FFFF"/>
<path transform="translate(481,1203)" d="m0 0h4l4 4 1 3-4-1v-2l-5-2z" fill="#264E34"/>
<path transform="translate(1027,942)" d="m0 0 4 2 3 7-1 3-5-8z" fill="#453B2C"/>
<path transform="translate(637,841)" d="m0 0 1 2-1 2h2l-1 7h-2l-1-9z" fill="#453428"/>
</svg>
